<?xml version="1.0" encoding="UTF-8"?>
<svg xmlns="http://www.w3.org/2000/svg" xmlns:xlink="http://www.w3.org/1999/xlink" width="882" height="489" viewBox="0 0 882 489">
<defs>
<g>
<g id="glyph-0-0">
<path d="M 7.125 0.1875 C 7.0625 0.1875 6.988281 0.164062 6.90625 0.125 C 6.820312 0.09375 6.726562 0.0507812 6.625 0 C 6.53125 -0.0625 6.457031 -0.101562 6.40625 -0.125 C 6.3125 -0.21875 6.226562 -0.328125 6.15625 -0.453125 C 6.082031 -0.578125 6.023438 -0.679688 5.984375 -0.765625 C 5.941406 -0.847656 5.898438 -0.984375 5.859375 -1.171875 C 5.828125 -1.359375 5.804688 -1.472656 5.796875 -1.515625 C 5.796875 -1.566406 5.78125 -1.71875 5.75 -1.96875 C 5.71875 -2.226562 5.703125 -2.367188 5.703125 -2.390625 C 5.066406 -1.148438 4.140625 -0.367188 2.921875 -0.046875 C 2.734375 -0.0546875 2.570312 -0.0703125 2.4375 -0.09375 C 2.300781 -0.125 2.160156 -0.1875 2.015625 -0.28125 C 1.878906 -0.375 1.789062 -0.4375 1.75 -0.46875 C 1.707031 -0.507812 1.59375 -0.625 1.40625 -0.8125 C 1.226562 -1 1.117188 -1.113281 1.078125 -1.15625 C 0.972656 -1.40625 0.894531 -1.65625 0.84375 -1.90625 C 0.789062 -2.15625 0.757812 -2.34375 0.75 -2.46875 C 0.738281 -2.59375 0.738281 -2.828125 0.75 -3.171875 C 0.757812 -3.523438 0.765625 -3.757812 0.765625 -3.875 C 0.828125 -3.925781 0.859375 -4.019531 0.859375 -4.15625 L 0.859375 -4.25 C 0.828125 -4.394531 0.890625 -4.742188 1.046875 -5.296875 C 1.066406 -5.335938 1.125 -5.40625 1.21875 -5.5 C 1.3125 -5.59375 1.378906 -5.648438 1.421875 -5.671875 C 1.515625 -5.691406 1.648438 -5.679688 1.828125 -5.640625 C 2.015625 -5.597656 2.125 -5.578125 2.15625 -5.578125 C 2.34375 -5.410156 2.4375 -5.097656 2.4375 -4.640625 C 2.4375 -4.617188 2.425781 -4.582031 2.40625 -4.53125 L 2.359375 -4.4375 C 2.160156 -4.007812 2.0625 -3.5625 2.0625 -3.09375 C 2 -2.582031 2.113281 -2.085938 2.40625 -1.609375 C 2.46875 -1.578125 2.546875 -1.535156 2.640625 -1.484375 C 2.742188 -1.441406 2.828125 -1.410156 2.890625 -1.390625 C 2.953125 -1.367188 3.03125 -1.359375 3.125 -1.359375 C 3.414062 -1.359375 3.695312 -1.503906 3.96875 -1.796875 C 4.71875 -2.828125 5.238281 -3.71875 5.53125 -4.46875 L 5.578125 -5.078125 C 5.617188 -5.492188 5.703125 -5.769531 5.828125 -5.90625 C 5.941406 -6.050781 6.035156 -6.125 6.109375 -6.125 C 6.140625 -6.125 6.171875 -6.125 6.203125 -6.125 C 6.273438 -6.132812 6.335938 -6.128906 6.390625 -6.109375 C 6.453125 -6.085938 6.523438 -6.035156 6.609375 -5.953125 C 6.691406 -5.878906 6.75 -5.832031 6.78125 -5.8125 C 6.96875 -5.5 7.046875 -5.125 7.015625 -4.6875 C 7.015625 -4.300781 6.992188 -4.0625 6.953125 -3.96875 C 6.941406 -3.601562 6.9375 -3.265625 6.9375 -2.953125 C 6.9375 -2.648438 6.972656 -2.316406 7.046875 -1.953125 C 7.117188 -1.597656 7.234375 -1.25 7.390625 -0.90625 C 7.554688 -0.445312 7.546875 -0.125 7.359375 0.0625 C 7.304688 0.15625 7.226562 0.195312 7.125 0.1875 Z M 7.125 0.1875 "/>
</g>
<g id="glyph-0-1">
<path d="M 0.984375 -1.046875 C 1.003906 -1.085938 1.050781 -1.160156 1.125 -1.265625 C 1.195312 -1.378906 1.25 -1.46875 1.28125 -1.53125 C 1.800781 -1.4375 2.238281 -1.21875 2.59375 -0.875 C 2.738281 -0.75 2.894531 -0.648438 3.0625 -0.578125 C 3.238281 -0.515625 3.429688 -0.46875 3.640625 -0.4375 C 3.859375 -0.414062 4.035156 -0.398438 4.171875 -0.390625 C 4.316406 -0.378906 4.519531 -0.375 4.78125 -0.375 C 5.050781 -0.382812 5.242188 -0.390625 5.359375 -0.390625 C 5.640625 -0.390625 5.921875 -0.445312 6.203125 -0.5625 C 6.304688 -0.59375 6.367188 -0.660156 6.390625 -0.765625 C 6.410156 -0.878906 6.378906 -0.972656 6.296875 -1.046875 C 6.109375 -1.191406 5.613281 -1.457031 4.8125 -1.84375 C 4.019531 -2.238281 3.601562 -2.445312 3.5625 -2.46875 C 2.695312 -2.738281 1.9375 -3.144531 1.28125 -3.6875 C 1.226562 -3.757812 1.144531 -3.84375 1.03125 -3.9375 C 0.914062 -4.03125 0.820312 -4.125 0.75 -4.21875 C 0.675781 -4.3125 0.628906 -4.421875 0.609375 -4.546875 C 0.597656 -4.929688 0.789062 -5.273438 1.1875 -5.578125 L 2.125 -6.1875 C 3.0625 -6.550781 3.945312 -6.765625 4.78125 -6.828125 C 4.800781 -6.828125 4.859375 -6.820312 4.953125 -6.8125 C 5.046875 -6.800781 5.097656 -6.796875 5.109375 -6.796875 C 5.128906 -6.796875 5.179688 -6.789062 5.265625 -6.78125 C 5.347656 -6.769531 5.394531 -6.757812 5.40625 -6.75 C 5.425781 -6.738281 5.46875 -6.722656 5.53125 -6.703125 C 5.59375 -6.679688 5.632812 -6.65625 5.65625 -6.625 C 5.6875 -6.601562 5.71875 -6.578125 5.75 -6.546875 C 5.789062 -6.515625 5.820312 -6.472656 5.84375 -6.421875 C 5.875 -6.378906 5.898438 -6.328125 5.921875 -6.265625 C 5.984375 -5.921875 5.890625 -5.640625 5.640625 -5.421875 C 5.585938 -5.421875 5.425781 -5.414062 5.15625 -5.40625 C 4.882812 -5.394531 4.707031 -5.382812 4.625 -5.375 C 4.550781 -5.375 4.40625 -5.359375 4.1875 -5.328125 C 3.96875 -5.304688 3.796875 -5.28125 3.671875 -5.25 C 3.554688 -5.21875 3.414062 -5.171875 3.25 -5.109375 C 3.09375 -5.054688 2.945312 -4.988281 2.8125 -4.90625 C 2.664062 -4.851562 2.566406 -4.769531 2.515625 -4.65625 C 2.472656 -4.550781 2.535156 -4.457031 2.703125 -4.375 C 3.171875 -4.0625 3.851562 -3.6875 4.75 -3.25 C 5.65625 -2.820312 6.265625 -2.519531 6.578125 -2.34375 C 7.472656 -1.78125 7.921875 -1.171875 7.921875 -0.515625 C 7.921875 0.429688 6.785156 0.941406 4.515625 1.015625 C 4.015625 1.035156 3.476562 0.960938 2.90625 0.796875 C 2.34375 0.628906 1.859375 0.390625 1.453125 0.078125 C 1.054688 -0.078125 0.898438 -0.453125 0.984375 -1.046875 Z M 0.984375 -1.046875 "/>
</g>
<g id="glyph-0-2">
<path d="M 0.59375 -1.3125 C 0.46875 -1.832031 0.492188 -2.347656 0.671875 -2.859375 C 0.859375 -3.378906 1.148438 -3.9375 1.546875 -4.53125 C 2.171875 -5.351562 2.867188 -5.890625 3.640625 -6.140625 L 3.890625 -6.1875 C 4.117188 -6.21875 4.296875 -6.226562 4.421875 -6.21875 C 4.984375 -6.195312 5.46875 -6.023438 5.875 -5.703125 C 6.289062 -5.390625 6.515625 -4.957031 6.546875 -4.40625 C 6.554688 -3.875 6.351562 -3.382812 5.9375 -2.9375 C 5.53125 -2.488281 5.082031 -2.242188 4.59375 -2.203125 C 4.40625 -2.128906 4.207031 -2.09375 4 -2.09375 C 3.488281 -2.09375 2.960938 -2.238281 2.421875 -2.53125 L 1.96875 -2.765625 C 1.832031 -2.503906 1.765625 -2.300781 1.765625 -2.15625 C 1.878906 -1.59375 2.179688 -1.117188 2.671875 -0.734375 C 3.171875 -0.359375 3.707031 -0.1875 4.28125 -0.21875 C 4.613281 -0.1875 5.066406 -0.257812 5.640625 -0.4375 L 6.078125 -0.5625 C 6.378906 -0.675781 6.789062 -0.753906 7.3125 -0.796875 C 7.5625 -0.828125 7.695312 -0.734375 7.71875 -0.515625 L 7.71875 0 C 7.382812 0.375 6.984375 0.570312 6.515625 0.59375 L 6.140625 0.703125 C 5.328125 0.929688 4.726562 1.035156 4.34375 1.015625 C 3.550781 1.066406 2.816406 0.882812 2.140625 0.46875 C 1.453125 0.101562 0.9375 -0.488281 0.59375 -1.3125 Z M 2.46875 -3.59375 C 2.707031 -3.519531 2.851562 -3.484375 2.90625 -3.484375 C 2.988281 -3.441406 3.066406 -3.40625 3.140625 -3.375 C 3.222656 -3.34375 3.316406 -3.320312 3.421875 -3.3125 C 3.523438 -3.300781 3.601562 -3.296875 3.65625 -3.296875 C 3.707031 -3.296875 3.804688 -3.296875 3.953125 -3.296875 C 4.097656 -3.296875 4.179688 -3.296875 4.203125 -3.296875 C 4.421875 -3.335938 4.644531 -3.453125 4.875 -3.640625 C 5.113281 -3.828125 5.253906 -4.019531 5.296875 -4.21875 C 5.390625 -4.53125 5.15625 -4.773438 4.59375 -4.953125 L 4.3125 -5.046875 C 4.113281 -5.046875 3.898438 -4.972656 3.671875 -4.828125 C 3.453125 -4.691406 3.289062 -4.570312 3.1875 -4.46875 C 3.09375 -4.375 2.929688 -4.207031 2.703125 -3.96875 L 2.53125 -3.703125 Z M 2.46875 -3.59375 "/>
</g>
<g id="glyph-0-3">
<path d="M 2.15625 -4.375 C 2.414062 -4.894531 2.710938 -5.3125 3.046875 -5.625 C 3.410156 -6 3.84375 -6.207031 4.34375 -6.25 C 4.832031 -6.3125 5.300781 -6.253906 5.75 -6.078125 C 5.9375 -5.890625 6.03125 -5.734375 6.03125 -5.609375 C 6.03125 -5.378906 6.007812 -5.242188 5.96875 -5.203125 C 5.78125 -5.015625 5.617188 -4.921875 5.484375 -4.921875 C 5.472656 -4.921875 5.398438 -4.929688 5.265625 -4.953125 C 5.128906 -4.972656 5.007812 -4.988281 4.90625 -5 L 4.5625 -5 C 4.132812 -4.9375 3.796875 -4.757812 3.546875 -4.46875 L 3.203125 -4.046875 C 2.953125 -3.703125 2.800781 -3.445312 2.75 -3.28125 C 2.726562 -3.226562 2.671875 -3.109375 2.578125 -2.921875 C 2.492188 -2.734375 2.445312 -2.585938 2.4375 -2.484375 C 2.425781 -1.898438 2.460938 -1.457031 2.546875 -1.15625 C 2.597656 -1.0625 2.628906 -0.960938 2.640625 -0.859375 C 2.648438 -0.753906 2.648438 -0.671875 2.640625 -0.609375 C 2.640625 -0.546875 2.609375 -0.453125 2.546875 -0.328125 C 2.492188 -0.203125 2.457031 -0.117188 2.4375 -0.078125 C 2.414062 -0.0351562 2.363281 0.0507812 2.28125 0.1875 C 2.1875 0.289062 2.09375 0.34375 2 0.34375 C 1.800781 0.34375 1.613281 0.25 1.4375 0.0625 C 1.269531 -0.125 1.140625 -0.351562 1.046875 -0.625 L 1.03125 -2.359375 C 1.007812 -2.742188 0.929688 -3.644531 0.796875 -5.0625 C 0.753906 -5.476562 0.753906 -5.828125 0.796875 -6.109375 C 0.898438 -6.328125 1.109375 -6.445312 1.421875 -6.46875 C 1.566406 -6.488281 1.6875 -6.460938 1.78125 -6.390625 C 1.882812 -6.316406 1.941406 -6.207031 1.953125 -6.0625 C 1.960938 -6.019531 1.976562 -5.972656 2 -5.921875 C 2.03125 -5.867188 2.046875 -5.832031 2.046875 -5.8125 C 2.046875 -5.582031 2.054688 -5.125 2.078125 -4.4375 Z M 2.15625 -4.375 "/>
</g>
<g id="glyph-0-4">
<path d="M 2.984375 0.21875 C 2.953125 0.21875 2.890625 0.21875 2.796875 0.21875 C 2.703125 0.226562 2.625 0.234375 2.5625 0.234375 C 2.507812 0.234375 2.445312 0.222656 2.375 0.203125 C 2.3125 0.191406 2.253906 0.171875 2.203125 0.140625 C 1.890625 -0.046875 1.617188 -0.421875 1.390625 -0.984375 C 1.296875 -1.222656 1.222656 -1.476562 1.171875 -1.75 C 1.128906 -2.019531 1.085938 -2.316406 1.046875 -2.640625 C 1.015625 -2.960938 0.976562 -3.222656 0.9375 -3.421875 L 0.890625 -3.84375 C 0.890625 -3.851562 0.863281 -3.929688 0.8125 -4.078125 C 0.757812 -4.222656 0.734375 -4.300781 0.734375 -4.3125 C 0.734375 -4.375 0.722656 -4.460938 0.703125 -4.578125 C 0.691406 -4.691406 0.679688 -4.785156 0.671875 -4.859375 C 0.671875 -4.929688 0.671875 -5.007812 0.671875 -5.09375 C 0.671875 -5.175781 0.675781 -5.25 0.6875 -5.3125 C 0.707031 -5.375 0.734375 -5.414062 0.765625 -5.4375 C 0.941406 -5.625 1.222656 -5.753906 1.609375 -5.828125 C 1.691406 -5.835938 1.773438 -5.820312 1.859375 -5.78125 C 1.953125 -5.75 2.054688 -5.675781 2.171875 -5.5625 C 2.296875 -5.445312 2.367188 -5.378906 2.390625 -5.359375 L 2.390625 -2.703125 C 2.410156 -2.398438 2.457031 -2.019531 2.53125 -1.5625 C 2.582031 -1.488281 2.632812 -1.453125 2.6875 -1.453125 C 2.78125 -1.515625 2.875 -1.613281 2.96875 -1.75 C 3.070312 -1.882812 3.175781 -2.039062 3.28125 -2.21875 C 3.382812 -2.394531 3.46875 -2.523438 3.53125 -2.609375 L 3.59375 -2.796875 C 3.644531 -2.972656 3.726562 -3.1875 3.84375 -3.4375 C 3.96875 -3.695312 4.066406 -3.863281 4.140625 -3.9375 C 4.285156 -4.125 4.613281 -4.25 5.125 -4.3125 C 5.15625 -4.3125 5.179688 -4.285156 5.203125 -4.234375 C 5.234375 -4.191406 5.257812 -4.117188 5.28125 -4.015625 C 5.3125 -3.921875 5.332031 -3.828125 5.34375 -3.734375 C 5.363281 -3.640625 5.382812 -3.523438 5.40625 -3.390625 C 5.425781 -3.253906 5.441406 -3.148438 5.453125 -3.078125 C 5.648438 -2.640625 5.757812 -2.320312 5.78125 -2.125 C 5.800781 -1.988281 5.875 -1.8125 6 -1.59375 L 6.28125 -1.8125 C 6.507812 -2.03125 6.726562 -2.289062 6.9375 -2.59375 C 7.15625 -2.90625 7.390625 -3.269531 7.640625 -3.6875 C 7.890625 -4.101562 8.070312 -4.410156 8.1875 -4.609375 C 8.226562 -4.703125 8.40625 -5.015625 8.71875 -5.546875 C 8.726562 -5.566406 8.941406 -5.816406 9.359375 -6.296875 C 9.421875 -6.359375 9.488281 -6.394531 9.5625 -6.40625 C 9.644531 -6.414062 9.742188 -6.414062 9.859375 -6.40625 C 9.972656 -6.394531 10.054688 -6.394531 10.109375 -6.40625 C 10.367188 -6.238281 10.441406 -5.914062 10.328125 -5.4375 C 9.609375 -4.300781 8.984375 -3.359375 8.453125 -2.609375 C 8.109375 -1.941406 7.617188 -1.253906 6.984375 -0.546875 C 6.859375 -0.390625 6.675781 -0.265625 6.4375 -0.171875 C 6.207031 -0.0859375 5.988281 -0.046875 5.78125 -0.046875 C 5.21875 -0.441406 4.796875 -1.054688 4.515625 -1.890625 C 3.921875 -0.835938 3.410156 -0.132812 2.984375 0.21875 Z M 2.984375 0.21875 "/>
</g>
<g id="glyph-0-5">
<path d="M 4 0.1875 C 3.457031 0.226562 2.820312 0.0390625 2.09375 -0.375 C 1.34375 -0.84375 0.921875 -1.539062 0.828125 -2.46875 C 0.804688 -3.3125 0.835938 -3.960938 0.921875 -4.421875 L 1.015625 -5.703125 C 1.035156 -5.984375 1.097656 -6.71875 1.203125 -7.90625 C 1.316406 -9.101562 1.378906 -10.015625 1.390625 -10.640625 C 1.410156 -10.691406 1.4375 -10.742188 1.46875 -10.796875 C 1.507812 -10.859375 1.5625 -10.921875 1.625 -10.984375 C 1.695312 -11.046875 1.742188 -11.085938 1.765625 -11.109375 C 1.867188 -11.191406 1.96875 -11.234375 2.0625 -11.234375 C 2.34375 -11.234375 2.566406 -11.066406 2.734375 -10.734375 C 2.722656 -10.359375 2.675781 -9.828125 2.59375 -9.140625 C 2.507812 -8.460938 2.457031 -7.976562 2.4375 -7.6875 C 2.28125 -6.28125 2.222656 -5.171875 2.265625 -4.359375 C 2.515625 -4.535156 2.816406 -4.644531 3.171875 -4.6875 C 3.796875 -4.78125 4.257812 -4.828125 4.5625 -4.828125 C 5.28125 -4.828125 5.929688 -4.691406 6.515625 -4.421875 C 6.847656 -4.265625 7.128906 -3.984375 7.359375 -3.578125 C 7.597656 -3.171875 7.707031 -2.789062 7.6875 -2.4375 C 7.71875 -2.1875 7.671875 -1.9375 7.546875 -1.6875 C 7.429688 -1.445312 7.3125 -1.257812 7.1875 -1.125 C 7.0625 -1 6.867188 -0.816406 6.609375 -0.578125 C 5.835938 -0.0546875 4.96875 0.195312 4 0.1875 Z M 4.703125 -1.140625 C 5.578125 -1.304688 6.078125 -1.671875 6.203125 -2.234375 C 6.285156 -2.503906 6.210938 -2.78125 5.984375 -3.0625 C 5.765625 -3.351562 5.507812 -3.535156 5.21875 -3.609375 C 5 -3.660156 4.804688 -3.6875 4.640625 -3.6875 C 3.921875 -3.6875 3.242188 -3.503906 2.609375 -3.140625 C 2.460938 -3.023438 2.363281 -2.929688 2.3125 -2.859375 C 2.257812 -2.785156 2.25 -2.679688 2.28125 -2.546875 C 2.25 -2.492188 2.242188 -2.425781 2.265625 -2.34375 C 2.296875 -2.269531 2.3125 -2.207031 2.3125 -2.15625 C 2.3125 -2.113281 2.335938 -2.050781 2.390625 -1.96875 C 2.453125 -1.894531 2.492188 -1.835938 2.515625 -1.796875 C 2.546875 -1.765625 2.597656 -1.710938 2.671875 -1.640625 C 2.742188 -1.566406 2.789062 -1.515625 2.8125 -1.484375 C 2.84375 -1.453125 2.890625 -1.40625 2.953125 -1.34375 C 3.023438 -1.289062 3.070312 -1.253906 3.09375 -1.234375 C 3.632812 -1.117188 4.171875 -1.085938 4.703125 -1.140625 Z M 4.703125 -1.140625 "/>
</g>
<g id="glyph-0-6">
</g>
<g id="glyph-0-7">
<path d="M 3.3125 0.078125 C 2.800781 -0.0351562 2.445312 -0.113281 2.25 -0.15625 C 2.0625 -0.207031 1.859375 -0.3125 1.640625 -0.46875 C 1.421875 -0.625 1.253906 -0.804688 1.140625 -1.015625 C 1.035156 -1.222656 0.90625 -1.550781 0.75 -2 L 0.828125 -3.578125 C 0.753906 -3.691406 0.71875 -3.851562 0.71875 -4.0625 C 0.71875 -4.269531 0.753906 -4.425781 0.828125 -4.53125 C 1.253906 -4.84375 1.796875 -5.203125 2.453125 -5.609375 C 2.878906 -5.859375 3.40625 -5.984375 4.03125 -5.984375 C 4.769531 -5.984375 5.484375 -5.820312 6.171875 -5.5 C 6.859375 -5.1875 7.425781 -4.75 7.875 -4.1875 C 8.394531 -3.476562 8.519531 -2.8125 8.25 -2.1875 C 7.613281 -1.09375 6.664062 -0.398438 5.40625 -0.109375 C 5.238281 -0.046875 5.054688 0 4.859375 0.03125 C 4.671875 0.0625 4.515625 0.078125 4.390625 0.078125 C 4.273438 0.0859375 4.085938 0.0859375 3.828125 0.078125 C 3.566406 0.078125 3.394531 0.078125 3.3125 0.078125 Z M 3.9375 -1.0625 C 4.332031 -1.0625 4.742188 -1.117188 5.171875 -1.234375 C 5.609375 -1.347656 6.007812 -1.546875 6.375 -1.828125 C 6.75 -2.117188 6.960938 -2.457031 7.015625 -2.84375 C 7.003906 -2.96875 6.988281 -3.070312 6.96875 -3.15625 C 6.945312 -3.25 6.90625 -3.335938 6.84375 -3.421875 C 6.789062 -3.515625 6.742188 -3.578125 6.703125 -3.609375 C 6.671875 -3.648438 6.613281 -3.710938 6.53125 -3.796875 C 6.445312 -3.890625 6.390625 -3.953125 6.359375 -3.984375 C 5.503906 -4.453125 4.859375 -4.6875 4.421875 -4.6875 C 4.109375 -4.6875 3.890625 -4.660156 3.765625 -4.609375 C 3.484375 -4.492188 3.332031 -4.425781 3.3125 -4.40625 C 3.25 -4.351562 3.148438 -4.28125 3.015625 -4.1875 C 2.890625 -4.101562 2.804688 -4.035156 2.765625 -3.984375 C 2.429688 -3.734375 2.25 -3.488281 2.21875 -3.25 C 2.1875 -3.132812 2.164062 -3.003906 2.15625 -2.859375 C 2.15625 -2.722656 2.15625 -2.566406 2.15625 -2.390625 C 2.164062 -2.222656 2.171875 -2.09375 2.171875 -2 C 2.242188 -1.851562 2.359375 -1.695312 2.515625 -1.53125 C 2.679688 -1.375 2.820312 -1.28125 2.9375 -1.25 C 3.164062 -1.125 3.5 -1.0625 3.9375 -1.0625 Z M 3.9375 -1.0625 "/>
</g>
<g id="glyph-0-8">
<path d="M 5.03125 3 C 4.8125 2.96875 4.585938 2.804688 4.359375 2.515625 C 4.128906 2.222656 3.941406 2.046875 3.796875 1.984375 C 3.265625 1.410156 2.617188 0.507812 1.859375 -0.71875 C 1.109375 -1.957031 0.765625 -2.847656 0.828125 -3.390625 C 0.710938 -4.148438 0.75 -5.207031 0.9375 -6.5625 C 1.570312 -8.445312 2.304688 -9.785156 3.140625 -10.578125 C 3.710938 -11.140625 4.164062 -11.515625 4.5 -11.703125 C 4.832031 -11.890625 5.179688 -11.984375 5.546875 -11.984375 C 5.566406 -11.960938 5.628906 -11.914062 5.734375 -11.84375 C 5.847656 -11.769531 5.925781 -11.679688 5.96875 -11.578125 C 6.019531 -11.484375 6.023438 -11.367188 5.984375 -11.234375 C 5.972656 -11.191406 5.957031 -11.132812 5.9375 -11.0625 C 5.914062 -11 5.898438 -10.953125 5.890625 -10.921875 C 5.878906 -10.898438 5.863281 -10.863281 5.84375 -10.8125 C 5.820312 -10.769531 5.796875 -10.734375 5.765625 -10.703125 C 5.734375 -10.671875 5.691406 -10.628906 5.640625 -10.578125 C 5.398438 -10.523438 5.144531 -10.378906 4.875 -10.140625 C 4.601562 -9.898438 4.328125 -9.625 4.046875 -9.3125 C 3.773438 -9.007812 3.582031 -8.8125 3.46875 -8.71875 C 2.832031 -8.019531 2.472656 -7.367188 2.390625 -6.765625 L 2.234375 -5.765625 C 2.097656 -4.796875 2.375 -3.476562 3.0625 -1.8125 L 3.296875 -1.484375 C 3.421875 -1.316406 3.566406 -1.109375 3.734375 -0.859375 C 3.898438 -0.617188 4.015625 -0.445312 4.078125 -0.34375 C 4.148438 -0.25 4.238281 -0.132812 4.34375 0 C 4.445312 0.144531 4.53125 0.25 4.59375 0.3125 C 4.65625 0.382812 4.734375 0.460938 4.828125 0.546875 C 4.921875 0.628906 5.015625 0.707031 5.109375 0.78125 C 5.398438 1.15625 5.566406 1.4375 5.609375 1.625 C 5.660156 1.8125 5.640625 2.113281 5.546875 2.53125 C 5.535156 2.664062 5.46875 2.773438 5.34375 2.859375 C 5.21875 2.953125 5.113281 3 5.03125 3 Z M 5.03125 3 "/>
</g>
<g id="glyph-0-9">
<path d="M 5.21875 0 C 5.09375 0 4.914062 0 4.6875 0 C 4.457031 0.0078125 4.273438 0.015625 4.140625 0.015625 C 4.015625 0.015625 3.859375 0.0078125 3.671875 0 C 3.484375 -0.0078125 3.3125 -0.03125 3.15625 -0.0625 C 2.15625 -0.226562 1.421875 -0.613281 0.953125 -1.21875 C 0.640625 -1.644531 0.515625 -2.210938 0.578125 -2.921875 C 0.648438 -3.390625 0.789062 -3.785156 1 -4.109375 C 1.207031 -4.429688 1.515625 -4.765625 1.921875 -5.109375 C 2.265625 -5.503906 2.675781 -5.800781 3.15625 -6 C 3.632812 -6.195312 4.109375 -6.253906 4.578125 -6.171875 C 4.785156 -6.179688 5 -6.125 5.21875 -6 C 5.445312 -5.875 5.609375 -5.765625 5.703125 -5.671875 C 5.796875 -5.585938 5.957031 -5.429688 6.1875 -5.203125 C 6.332031 -5.023438 6.414062 -4.851562 6.4375 -4.6875 C 6.457031 -4.53125 6.453125 -4.34375 6.421875 -4.125 C 6.285156 -3.882812 6.15625 -3.757812 6.03125 -3.75 C 6 -3.75 5.90625 -3.738281 5.75 -3.71875 C 5.601562 -3.707031 5.488281 -3.71875 5.40625 -3.75 C 5.332031 -3.78125 5.273438 -3.84375 5.234375 -3.9375 C 5.097656 -4.289062 4.976562 -4.5 4.875 -4.5625 C 4.726562 -4.65625 4.546875 -4.707031 4.328125 -4.71875 C 4.117188 -4.726562 3.9375 -4.722656 3.78125 -4.703125 C 3.425781 -4.617188 3.117188 -4.441406 2.859375 -4.171875 C 2.597656 -3.910156 2.332031 -3.5625 2.0625 -3.125 C 2.0625 -3.101562 2.046875 -3.003906 2.015625 -2.828125 C 1.992188 -2.648438 1.992188 -2.488281 2.015625 -2.34375 C 2.035156 -2.207031 2.097656 -2.113281 2.203125 -2.0625 C 2.359375 -1.863281 2.695312 -1.671875 3.21875 -1.484375 C 3.539062 -1.367188 3.894531 -1.304688 4.28125 -1.296875 C 4.675781 -1.285156 5.015625 -1.289062 5.296875 -1.3125 L 6.921875 -1.40625 C 6.992188 -1.375 7.078125 -1.304688 7.171875 -1.203125 C 7.273438 -1.097656 7.328125 -1.007812 7.328125 -0.9375 C 7.328125 -0.695312 7.128906 -0.453125 6.734375 -0.203125 C 6.359375 -0.0664062 5.851562 0 5.21875 0 Z M 5.21875 0 "/>
</g>
<g id="glyph-0-10">
<path d="M 1.953125 0.296875 C 1.722656 0.296875 1.539062 0.257812 1.40625 0.1875 C 1.269531 0.03125 1.15625 -0.128906 1.0625 -0.296875 C 0.976562 -0.472656 0.914062 -0.675781 0.875 -0.90625 C 0.84375 -1.132812 0.820312 -1.3125 0.8125 -1.4375 C 0.800781 -1.5625 0.789062 -1.773438 0.78125 -2.078125 C 0.78125 -2.390625 0.78125 -2.582031 0.78125 -2.65625 C 0.789062 -3.25 0.820312 -4.046875 0.875 -5.046875 C 0.9375 -6.054688 0.976562 -6.773438 1 -7.203125 C 0.988281 -7.710938 1.015625 -8.484375 1.078125 -9.515625 C 1.140625 -10.546875 1.15625 -11.367188 1.125 -11.984375 C 1.207031 -12.242188 1.359375 -12.375 1.578125 -12.375 C 1.859375 -12.375 2.085938 -12.210938 2.265625 -11.890625 C 2.265625 -11.867188 2.285156 -11.816406 2.328125 -11.734375 C 2.367188 -11.660156 2.394531 -11.59375 2.40625 -11.53125 L 2.453125 -10.453125 C 2.460938 -10.347656 2.46875 -10.226562 2.46875 -10.09375 C 2.445312 -9.476562 2.398438 -8.703125 2.328125 -7.765625 C 2.253906 -6.835938 2.195312 -6 2.15625 -5.25 C 2.113281 -4.5 2.09375 -3.757812 2.09375 -3.03125 C 2.101562 -2.851562 2.117188 -2.585938 2.140625 -2.234375 C 2.160156 -1.878906 2.175781 -1.617188 2.1875 -1.453125 C 2.207031 -1.296875 2.242188 -1.097656 2.296875 -0.859375 C 2.359375 -0.617188 2.441406 -0.394531 2.546875 -0.1875 C 2.554688 -0.0507812 2.519531 0.0703125 2.4375 0.1875 C 2.3125 0.257812 2.148438 0.296875 1.953125 0.296875 Z M 1.953125 0.296875 "/>
</g>
<g id="glyph-0-11">
<path d="M 2.15625 -6.75 C 2.007812 -6.71875 1.851562 -6.726562 1.6875 -6.78125 C 1.53125 -6.832031 1.328125 -6.929688 1.078125 -7.078125 C 0.828125 -7.234375 0.6875 -7.3125 0.65625 -7.3125 C 0.488281 -7.425781 0.375 -7.578125 0.3125 -7.765625 C 0.257812 -7.960938 0.28125 -8.160156 0.375 -8.359375 C 0.445312 -8.535156 0.566406 -8.671875 0.734375 -8.765625 C 0.898438 -8.867188 1.078125 -8.910156 1.265625 -8.890625 C 1.316406 -8.878906 1.359375 -8.878906 1.390625 -8.890625 C 1.421875 -8.910156 1.460938 -8.90625 1.515625 -8.875 C 1.566406 -8.84375 1.601562 -8.820312 1.625 -8.8125 C 1.65625 -8.8125 1.691406 -8.789062 1.734375 -8.75 C 1.773438 -8.707031 1.804688 -8.675781 1.828125 -8.65625 C 1.847656 -8.644531 1.878906 -8.609375 1.921875 -8.546875 C 1.960938 -8.492188 1.988281 -8.457031 2 -8.4375 C 2.019531 -8.425781 2.046875 -8.394531 2.078125 -8.34375 C 2.117188 -8.289062 2.144531 -8.253906 2.15625 -8.234375 C 2.195312 -8.128906 2.390625 -7.910156 2.734375 -7.578125 C 2.785156 -7.492188 2.804688 -7.363281 2.796875 -7.1875 C 2.796875 -7.019531 2.75 -6.898438 2.65625 -6.828125 Z M 2.28125 0.09375 C 2.007812 0.144531 1.789062 0.0820312 1.625 -0.09375 C 1.445312 -0.394531 1.347656 -0.613281 1.328125 -0.75 C 1.316406 -0.875 1.289062 -1.132812 1.25 -1.53125 C 1.207031 -1.9375 1.164062 -2.363281 1.125 -2.8125 C 1.082031 -3.257812 1.054688 -3.519531 1.046875 -3.59375 C 1.023438 -3.863281 1.023438 -4.148438 1.046875 -4.453125 C 1.203125 -4.710938 1.453125 -4.804688 1.796875 -4.734375 C 1.929688 -4.679688 2.0625 -4.492188 2.1875 -4.171875 C 2.1875 -3.960938 2.203125 -3.742188 2.234375 -3.515625 C 2.273438 -3.285156 2.3125 -3.085938 2.34375 -2.921875 C 2.382812 -2.765625 2.4375 -2.554688 2.5 -2.296875 C 2.570312 -2.035156 2.625 -1.832031 2.65625 -1.6875 C 2.65625 -1.613281 2.644531 -1.488281 2.625 -1.3125 C 2.613281 -1.132812 2.597656 -0.960938 2.578125 -0.796875 C 2.566406 -0.640625 2.5625 -0.5625 2.5625 -0.5625 C 2.550781 -0.53125 2.535156 -0.472656 2.515625 -0.390625 C 2.503906 -0.304688 2.488281 -0.238281 2.46875 -0.1875 C 2.457031 -0.144531 2.4375 -0.09375 2.40625 -0.03125 C 2.375 0.0195312 2.332031 0.0625 2.28125 0.09375 Z M 2.28125 0.09375 "/>
</g>
<g id="glyph-0-12">
<path d="M 6.546875 0.046875 C 6.441406 0.046875 6.378906 -0.00390625 6.359375 -0.109375 C 6.335938 -0.140625 6.269531 -0.25 6.15625 -0.4375 C 6.039062 -0.632812 5.945312 -0.773438 5.875 -0.859375 C 5.6875 -1.515625 5.5625 -2.148438 5.5 -2.765625 C 5.46875 -2.828125 5.425781 -2.972656 5.375 -3.203125 C 5.320312 -3.441406 5.269531 -3.609375 5.21875 -3.703125 C 5.195312 -3.785156 5.140625 -3.875 5.046875 -3.96875 C 4.953125 -4.0625 4.875 -4.109375 4.8125 -4.109375 C 4.726562 -4.109375 4.675781 -4.097656 4.65625 -4.078125 C 3.988281 -3.515625 3.382812 -2.820312 2.84375 -2 C 2.820312 -1.957031 2.691406 -1.738281 2.453125 -1.34375 C 2.222656 -0.945312 2.070312 -0.660156 2 -0.484375 C 1.882812 -0.296875 1.722656 -0.226562 1.515625 -0.28125 L 0.859375 -0.953125 L 0.859375 -1.421875 C 0.910156 -1.679688 0.960938 -2.1875 1.015625 -2.9375 C 1.078125 -3.6875 1.117188 -4.132812 1.140625 -4.28125 C 1.140625 -4.320312 1.113281 -4.492188 1.0625 -4.796875 C 1.050781 -4.835938 1.046875 -4.90625 1.046875 -5 C 1.046875 -5.15625 1.097656 -5.28125 1.203125 -5.375 C 1.304688 -5.476562 1.441406 -5.523438 1.609375 -5.515625 C 1.921875 -5.515625 2.144531 -5.414062 2.28125 -5.21875 C 2.351562 -4.945312 2.390625 -4.597656 2.390625 -4.171875 C 2.390625 -4.023438 2.378906 -3.851562 2.359375 -3.65625 C 2.335938 -3.457031 2.328125 -3.351562 2.328125 -3.34375 C 2.378906 -3.382812 2.472656 -3.492188 2.609375 -3.671875 C 2.742188 -3.847656 2.882812 -4.03125 3.03125 -4.21875 C 3.1875 -4.40625 3.28125 -4.519531 3.3125 -4.5625 C 3.375 -4.632812 3.460938 -4.75 3.578125 -4.90625 C 3.691406 -5.0625 3.796875 -5.1875 3.890625 -5.28125 C 3.984375 -5.382812 4.101562 -5.492188 4.25 -5.609375 C 4.457031 -5.773438 4.734375 -5.867188 5.078125 -5.890625 C 5.191406 -5.929688 5.304688 -5.925781 5.421875 -5.875 C 5.535156 -5.820312 5.65625 -5.710938 5.78125 -5.546875 C 5.914062 -5.378906 6 -5.265625 6.03125 -5.203125 C 6.070312 -5.140625 6.148438 -5.015625 6.265625 -4.828125 C 6.578125 -4.109375 6.734375 -3.320312 6.734375 -2.46875 L 7.015625 -1.25 C 7.015625 -1.21875 7.046875 -1.113281 7.109375 -0.9375 C 7.179688 -0.769531 7.21875 -0.679688 7.21875 -0.671875 C 7.238281 -0.398438 7.171875 -0.210938 7.015625 -0.109375 C 6.984375 -0.0976562 6.910156 -0.0664062 6.796875 -0.015625 C 6.679688 0.0234375 6.597656 0.046875 6.546875 0.046875 Z M 6.546875 0.046875 "/>
</g>
<g id="glyph-0-13">
<path d="M 4.15625 0.859375 C 3.695312 0.835938 3.359375 0.6875 3.140625 0.40625 C 3.109375 0.34375 3.015625 0.1875 2.859375 -0.0625 C 2.710938 -0.320312 2.609375 -0.546875 2.546875 -0.734375 C 2.484375 -0.929688 2.46875 -1.140625 2.5 -1.359375 C 2.382812 -2.597656 2.34375 -3.492188 2.375 -4.046875 C 2.394531 -4.253906 2.378906 -4.566406 2.328125 -4.984375 C 2.265625 -5.210938 2.207031 -5.347656 2.15625 -5.390625 C 1.863281 -5.359375 1.648438 -5.296875 1.515625 -5.203125 C 1.421875 -5.203125 1.289062 -5.164062 1.125 -5.09375 C 0.957031 -5.03125 0.8125 -5.007812 0.6875 -5.03125 C 0.613281 -5.050781 0.539062 -5.09375 0.46875 -5.15625 C 0.40625 -5.21875 0.335938 -5.289062 0.265625 -5.375 C 0.191406 -5.457031 0.128906 -5.519531 0.078125 -5.5625 C 0.0351562 -5.664062 0.0195312 -5.804688 0.03125 -5.984375 C 0.0390625 -6.160156 0.078125 -6.296875 0.140625 -6.390625 L 0.625 -6.828125 C 1.082031 -6.835938 1.566406 -6.882812 2.078125 -6.96875 L 2.1875 -7.09375 L 2.1875 -9.859375 C 2.414062 -10.109375 2.703125 -10.195312 3.046875 -10.125 C 3.316406 -9.914062 3.46875 -9.65625 3.5 -9.34375 C 3.53125 -9.257812 3.550781 -8.9375 3.5625 -8.375 C 3.582031 -7.8125 3.628906 -7.492188 3.703125 -7.421875 L 3.984375 -7.328125 C 4.191406 -7.347656 4.445312 -7.382812 4.75 -7.4375 C 5.0625 -7.5 5.285156 -7.535156 5.421875 -7.546875 C 5.566406 -7.554688 5.820312 -7.550781 6.1875 -7.53125 L 6.890625 -7.5 C 7.316406 -7.4375 7.472656 -7.1875 7.359375 -6.75 C 7.191406 -6.582031 7.0625 -6.488281 6.96875 -6.46875 C 6.738281 -6.445312 6.503906 -6.414062 6.265625 -6.375 C 6.023438 -6.332031 5.726562 -6.269531 5.375 -6.1875 C 5.019531 -6.101562 4.785156 -6.050781 4.671875 -6.03125 C 4.429688 -6.03125 4.125 -5.957031 3.75 -5.8125 L 3.671875 -5.71875 C 3.671875 -5.5625 3.660156 -5.378906 3.640625 -5.171875 C 3.617188 -4.972656 3.609375 -4.804688 3.609375 -4.671875 C 3.617188 -4.535156 3.648438 -4.390625 3.703125 -4.234375 C 3.703125 -2.484375 3.789062 -1.390625 3.96875 -0.953125 C 4.132812 -0.804688 4.273438 -0.71875 4.390625 -0.6875 C 4.503906 -0.65625 4.660156 -0.664062 4.859375 -0.71875 C 4.898438 -0.726562 4.957031 -0.742188 5.03125 -0.765625 C 5.113281 -0.785156 5.171875 -0.796875 5.203125 -0.796875 C 5.234375 -0.804688 5.28125 -0.820312 5.34375 -0.84375 C 5.40625 -0.863281 5.445312 -0.878906 5.46875 -0.890625 C 5.488281 -0.898438 5.519531 -0.914062 5.5625 -0.9375 C 5.613281 -0.957031 5.648438 -0.984375 5.671875 -1.015625 C 5.703125 -1.046875 5.734375 -1.082031 5.765625 -1.125 C 5.804688 -1.164062 5.84375 -1.207031 5.875 -1.25 C 5.914062 -1.300781 5.957031 -1.359375 6 -1.421875 C 6.039062 -1.492188 6.085938 -1.570312 6.140625 -1.65625 C 6.128906 -1.695312 6.140625 -1.8125 6.171875 -2 C 6.210938 -2.195312 6.242188 -2.320312 6.265625 -2.375 C 6.378906 -2.675781 6.582031 -2.820312 6.875 -2.8125 C 7.007812 -2.832031 7.113281 -2.804688 7.1875 -2.734375 C 7.257812 -2.671875 7.320312 -2.550781 7.375 -2.375 L 7.453125 -2.109375 C 7.378906 -1.617188 7.304688 -1.316406 7.234375 -1.203125 C 7.035156 -0.796875 6.878906 -0.519531 6.765625 -0.375 C 6.660156 -0.226562 6.472656 -0.0703125 6.203125 0.09375 C 5.941406 0.257812 5.53125 0.429688 4.96875 0.609375 C 4.9375 0.617188 4.816406 0.660156 4.609375 0.734375 C 4.410156 0.816406 4.257812 0.859375 4.15625 0.859375 Z M 4.15625 0.859375 "/>
</g>
<g id="glyph-0-14">
<path d="M 1.6875 3 C 1.613281 3 1.535156 2.984375 1.453125 2.953125 C 1.367188 2.921875 1.285156 2.847656 1.203125 2.734375 C 1.117188 2.617188 1.078125 2.46875 1.078125 2.28125 L 1.078125 2.15625 C 1.078125 2.144531 1.085938 2.117188 1.109375 2.078125 C 1.140625 2.046875 1.175781 2 1.21875 1.9375 C 1.269531 1.882812 1.300781 1.847656 1.3125 1.828125 C 1.332031 1.773438 1.445312 1.671875 1.65625 1.515625 C 1.875 1.367188 2.117188 1.1875 2.390625 0.96875 C 2.671875 0.75 2.882812 0.550781 3.03125 0.375 C 3.300781 -0.03125 3.503906 -0.640625 3.640625 -1.453125 C 3.785156 -2.265625 3.816406 -3.003906 3.734375 -3.671875 C 3.554688 -5.234375 3.304688 -6.445312 2.984375 -7.3125 C 2.898438 -7.5 2.640625 -7.9375 2.203125 -8.625 C 1.773438 -9.320312 1.5 -9.742188 1.375 -9.890625 L 1.3125 -9.953125 L 1.0625 -10.15625 C 1.050781 -10.164062 1.035156 -10.179688 1.015625 -10.203125 L 0.984375 -10.21875 C 0.847656 -10.375 0.75 -10.515625 0.6875 -10.640625 C 0.625 -10.773438 0.59375 -10.90625 0.59375 -11.03125 C 0.59375 -11.15625 0.597656 -11.300781 0.609375 -11.46875 C 0.609375 -11.53125 0.664062 -11.597656 0.78125 -11.671875 C 0.894531 -11.753906 1.007812 -11.816406 1.125 -11.859375 C 1.25 -11.910156 1.3125 -11.9375 1.3125 -11.9375 C 1.707031 -11.78125 2.054688 -11.550781 2.359375 -11.25 C 2.671875 -10.957031 2.957031 -10.578125 3.21875 -10.109375 C 3.476562 -9.640625 3.679688 -9.234375 3.828125 -8.890625 C 3.984375 -8.546875 4.175781 -8.066406 4.40625 -7.453125 C 4.75 -6.453125 4.984375 -5.570312 5.109375 -4.8125 C 5.242188 -4.0625 5.257812 -3.242188 5.15625 -2.359375 C 5.132812 -1.898438 5.003906 -1.234375 4.765625 -0.359375 C 4.523438 0.503906 4.265625 1.101562 3.984375 1.4375 C 3.140625 2.476562 2.375 3 1.6875 3 Z M 1.6875 3 "/>
</g>
<g id="glyph-0-15">
<path d="M 3.34375 0.125 C 3.175781 0.125 3.054688 0.113281 2.984375 0.09375 C 2.921875 0.0703125 2.832031 0.0078125 2.71875 -0.09375 C 2.425781 -0.351562 2.1875 -0.625 2 -0.90625 C 1.820312 -1.1875 1.625 -1.5625 1.40625 -2.03125 C 1.144531 -2.832031 0.960938 -3.472656 0.859375 -3.953125 C 0.773438 -4.191406 0.5625 -4.59375 0.21875 -5.15625 C 0.195312 -5.613281 0.234375 -5.9375 0.328125 -6.125 C 0.335938 -6.132812 0.347656 -6.144531 0.359375 -6.15625 C 0.378906 -6.175781 0.390625 -6.1875 0.390625 -6.1875 C 0.398438 -6.195312 0.410156 -6.207031 0.421875 -6.21875 C 0.441406 -6.226562 0.457031 -6.238281 0.46875 -6.25 C 0.65625 -6.457031 0.859375 -6.566406 1.078125 -6.578125 C 1.234375 -6.640625 1.394531 -6.585938 1.5625 -6.421875 C 1.726562 -6.265625 1.832031 -6.085938 1.875 -5.890625 C 1.914062 -5.210938 2.066406 -4.332031 2.328125 -3.25 L 2.453125 -2.890625 C 2.546875 -2.648438 2.625 -2.46875 2.6875 -2.34375 C 2.75 -2.21875 2.84375 -2.078125 2.96875 -1.921875 C 3.101562 -1.765625 3.25 -1.671875 3.40625 -1.640625 C 3.550781 -1.597656 3.707031 -1.640625 3.875 -1.765625 C 3.90625 -1.796875 4.003906 -1.914062 4.171875 -2.125 C 4.335938 -2.332031 4.4375 -2.453125 4.46875 -2.484375 C 4.5 -2.523438 4.582031 -2.628906 4.71875 -2.796875 C 4.851562 -2.960938 4.941406 -3.078125 4.984375 -3.140625 C 5.035156 -3.210938 5.109375 -3.316406 5.203125 -3.453125 C 5.296875 -3.585938 5.375 -3.710938 5.4375 -3.828125 C 5.507812 -3.941406 5.578125 -4.0625 5.640625 -4.1875 C 5.773438 -4.394531 5.921875 -4.691406 6.078125 -5.078125 C 6.296875 -5.597656 6.488281 -5.972656 6.65625 -6.203125 C 6.757812 -6.296875 6.953125 -6.332031 7.234375 -6.3125 C 7.265625 -6.300781 7.296875 -6.296875 7.328125 -6.296875 C 7.460938 -6.285156 7.582031 -6.207031 7.6875 -6.0625 C 7.789062 -5.914062 7.84375 -5.769531 7.84375 -5.625 C 7.84375 -5.550781 7.769531 -5.351562 7.625 -5.03125 L 7.5625 -4.890625 C 6.894531 -3.679688 6.21875 -2.648438 5.53125 -1.796875 C 5.476562 -1.734375 5.394531 -1.628906 5.28125 -1.484375 C 5.175781 -1.335938 5.101562 -1.226562 5.0625 -1.15625 C 5.019531 -1.09375 4.945312 -1 4.84375 -0.875 C 4.738281 -0.757812 4.648438 -0.664062 4.578125 -0.59375 C 4.515625 -0.53125 4.429688 -0.453125 4.328125 -0.359375 C 4.222656 -0.265625 4.113281 -0.1875 4 -0.125 C 3.976562 -0.101562 3.953125 -0.078125 3.921875 -0.046875 C 3.890625 -0.0234375 3.863281 -0.0078125 3.84375 0 C 3.832031 0.0078125 3.8125 0.0234375 3.78125 0.046875 C 3.757812 0.0664062 3.738281 0.078125 3.71875 0.078125 C 3.695312 0.0859375 3.671875 0.0976562 3.640625 0.109375 C 3.617188 0.117188 3.59375 0.125 3.5625 0.125 C 3.539062 0.125 3.507812 0.125 3.46875 0.125 C 3.4375 0.125 3.394531 0.125 3.34375 0.125 Z M 3.34375 0.125 "/>
</g>
<g id="glyph-0-16">
<path d="M 1.09375 0.9375 C 0.988281 0.945312 0.828125 0.875 0.609375 0.71875 C 0.347656 0.289062 0.253906 -0.0625 0.328125 -0.34375 L 0.328125 -0.40625 C 0.398438 -0.507812 0.617188 -0.695312 0.984375 -0.96875 C 1.078125 -1 1.390625 -1.175781 1.921875 -1.5 C 1.992188 -1.570312 2.195312 -1.75 2.53125 -2.03125 C 2.863281 -2.3125 3.082031 -2.5625 3.1875 -2.78125 C 3.125 -2.875 3.050781 -2.960938 2.96875 -3.046875 C 2.882812 -3.140625 2.785156 -3.242188 2.671875 -3.359375 C 2.554688 -3.472656 2.472656 -3.5625 2.421875 -3.625 C 1.941406 -4.113281 1.65625 -4.460938 1.5625 -4.671875 L 1.5625 -5.34375 C 1.582031 -5.40625 1.710938 -5.5625 1.953125 -5.8125 C 2.015625 -5.875 2.082031 -5.90625 2.15625 -5.90625 C 2.195312 -5.90625 2.238281 -5.898438 2.28125 -5.890625 C 2.320312 -5.878906 2.363281 -5.863281 2.40625 -5.84375 C 2.457031 -5.820312 2.492188 -5.8125 2.515625 -5.8125 L 2.890625 -5.4375 C 3.003906 -5.3125 3.210938 -5.035156 3.515625 -4.609375 C 3.816406 -4.191406 4.082031 -3.894531 4.3125 -3.71875 C 4.363281 -3.707031 4.40625 -3.703125 4.4375 -3.703125 L 4.609375 -3.71875 C 4.679688 -3.769531 4.925781 -3.960938 5.34375 -4.296875 C 5.757812 -4.628906 6.066406 -4.847656 6.265625 -4.953125 C 6.316406 -4.992188 6.40625 -5.066406 6.53125 -5.171875 C 6.664062 -5.285156 6.757812 -5.359375 6.8125 -5.390625 C 6.863281 -5.421875 6.945312 -5.472656 7.0625 -5.546875 C 7.1875 -5.617188 7.289062 -5.671875 7.375 -5.703125 C 7.46875 -5.734375 7.585938 -5.757812 7.734375 -5.78125 C 7.890625 -5.8125 8.054688 -5.832031 8.234375 -5.84375 C 8.253906 -5.863281 8.28125 -5.863281 8.3125 -5.84375 C 8.34375 -5.832031 8.363281 -5.820312 8.375 -5.8125 C 8.394531 -5.8125 8.414062 -5.796875 8.4375 -5.765625 C 8.457031 -5.742188 8.472656 -5.722656 8.484375 -5.703125 C 8.492188 -5.691406 8.507812 -5.664062 8.53125 -5.625 C 8.550781 -5.59375 8.5625 -5.570312 8.5625 -5.5625 C 8.5625 -5.53125 8.5625 -5.46875 8.5625 -5.375 C 8.570312 -5.28125 8.566406 -5.203125 8.546875 -5.140625 C 8.535156 -5.085938 8.503906 -5.039062 8.453125 -5 C 8.191406 -4.78125 7.941406 -4.632812 7.703125 -4.5625 C 6.785156 -3.9375 6.003906 -3.273438 5.359375 -2.578125 C 5.335938 -2.515625 5.335938 -2.453125 5.359375 -2.390625 L 6.453125 -1.53125 C 6.472656 -1.507812 6.601562 -1.445312 6.84375 -1.34375 C 6.875 -1.332031 6.945312 -1.320312 7.0625 -1.3125 C 7.175781 -1.300781 7.265625 -1.28125 7.328125 -1.25 C 7.398438 -1.226562 7.457031 -1.195312 7.5 -1.15625 C 7.65625 -0.882812 7.71875 -0.6875 7.6875 -0.5625 C 7.6875 -0.300781 7.53125 -0.117188 7.21875 -0.015625 C 7.082031 -0.0234375 6.957031 -0.0234375 6.84375 -0.015625 C 6.738281 -0.00390625 6.625 -0.00390625 6.5 -0.015625 C 6.375 -0.0351562 6.265625 -0.0703125 6.171875 -0.125 C 5.921875 -0.28125 5.566406 -0.523438 5.109375 -0.859375 C 4.660156 -1.191406 4.363281 -1.414062 4.21875 -1.53125 C 4.195312 -1.539062 4.160156 -1.546875 4.109375 -1.546875 C 4.054688 -1.546875 4.019531 -1.546875 4 -1.546875 C 3.820312 -1.472656 3.660156 -1.378906 3.515625 -1.265625 C 3.367188 -1.160156 3.191406 -1 2.984375 -0.78125 C 2.785156 -0.570312 2.660156 -0.445312 2.609375 -0.40625 C 2.546875 -0.34375 2.390625 -0.171875 2.140625 0.109375 C 1.890625 0.398438 1.695312 0.601562 1.5625 0.71875 C 1.375 0.875 1.21875 0.945312 1.09375 0.9375 Z M 1.09375 0.9375 "/>
</g>
<g id="glyph-0-17">
<path d="M 2.921875 0.109375 C 2.609375 0.148438 2.285156 0.109375 1.953125 -0.015625 C 1.628906 -0.140625 1.375 -0.320312 1.1875 -0.5625 C 1.09375 -0.695312 1.023438 -0.789062 0.984375 -0.84375 C 0.953125 -0.90625 0.898438 -1 0.828125 -1.125 C 0.765625 -1.25 0.71875 -1.347656 0.6875 -1.421875 C 0.664062 -1.503906 0.640625 -1.597656 0.609375 -1.703125 C 0.578125 -1.816406 0.5625 -1.925781 0.5625 -2.03125 C 0.5625 -2.132812 0.578125 -2.242188 0.609375 -2.359375 C 0.617188 -2.691406 0.734375 -3.035156 0.953125 -3.390625 C 1.171875 -3.742188 1.390625 -4.023438 1.609375 -4.234375 C 1.828125 -4.441406 2.109375 -4.691406 2.453125 -4.984375 C 2.523438 -5.035156 2.578125 -5.070312 2.609375 -5.09375 C 3.023438 -5.4375 3.59375 -5.609375 4.3125 -5.609375 C 4.46875 -5.609375 4.945312 -5.566406 5.75 -5.484375 C 5.769531 -5.460938 5.835938 -5.425781 5.953125 -5.375 C 6.066406 -5.332031 6.144531 -5.28125 6.1875 -5.21875 C 6.238281 -5.164062 6.242188 -5.097656 6.203125 -5.015625 L 6.40625 -4.8125 C 6.625 -4.6875 6.765625 -4.5625 6.828125 -4.4375 C 6.910156 -4.289062 7.070312 -3.820312 7.3125 -3.03125 C 7.332031 -2.945312 7.429688 -2.675781 7.609375 -2.21875 C 7.785156 -1.757812 7.882812 -1.484375 7.90625 -1.390625 C 8.15625 -0.929688 8.285156 -0.628906 8.296875 -0.484375 L 8.375 -0.234375 C 8.363281 -0.191406 8.316406 -0.140625 8.234375 -0.078125 C 8.148438 -0.015625 8.101562 0.0195312 8.09375 0.03125 C 7.925781 0.09375 7.664062 0.0625 7.3125 -0.0625 C 7.25 -0.09375 7.1875 -0.128906 7.125 -0.171875 C 7.070312 -0.210938 7.03125 -0.25 7 -0.28125 C 6.976562 -0.320312 6.9375 -0.390625 6.875 -0.484375 C 6.8125 -0.585938 6.765625 -0.664062 6.734375 -0.71875 L 6.671875 -0.796875 C 6.566406 -1.054688 6.398438 -1.515625 6.171875 -2.171875 C 5.765625 -1.492188 5.273438 -0.941406 4.703125 -0.515625 C 4.140625 -0.0859375 3.546875 0.117188 2.921875 0.109375 Z M 2.84375 -1.296875 C 3.019531 -1.296875 3.257812 -1.332031 3.5625 -1.40625 C 4.050781 -1.59375 4.492188 -1.910156 4.890625 -2.359375 C 5.273438 -2.898438 5.492188 -3.375 5.546875 -3.78125 C 5.546875 -3.8125 5.566406 -3.925781 5.609375 -4.125 C 5.648438 -4.332031 5.664062 -4.476562 5.65625 -4.5625 C 5.457031 -4.507812 5.171875 -4.46875 4.796875 -4.4375 C 4.421875 -4.414062 4.132812 -4.382812 3.9375 -4.34375 C 3.675781 -4.3125 3.410156 -4.191406 3.140625 -3.984375 C 2.867188 -3.773438 2.660156 -3.582031 2.515625 -3.40625 C 2.378906 -3.226562 2.191406 -2.972656 1.953125 -2.640625 C 1.773438 -2.429688 1.804688 -2.113281 2.046875 -1.6875 C 2.222656 -1.425781 2.488281 -1.296875 2.84375 -1.296875 Z M 2.84375 -1.296875 "/>
</g>
<g id="glyph-0-18">
<path d="M 2.5 0.28125 C 2.007812 0.28125 1.617188 0.148438 1.328125 -0.109375 C 1.191406 -0.210938 1.066406 -0.34375 0.953125 -0.5 C 0.796875 -0.757812 0.695312 -1.09375 0.65625 -1.5 C 0.625 -1.90625 0.628906 -2.257812 0.671875 -2.5625 L 0.671875 -2.671875 C 0.773438 -3.472656 1.15625 -4.179688 1.8125 -4.796875 C 2.476562 -5.410156 3.203125 -5.648438 3.984375 -5.515625 C 4.453125 -5.492188 4.875 -5.378906 5.25 -5.171875 C 5.625 -4.972656 5.832031 -4.71875 5.875 -4.40625 L 5.890625 -4.46875 L 5.90625 -5.0625 L 5.96875 -6.90625 L 5.984375 -7.5 C 5.992188 -7.570312 6.007812 -7.726562 6.03125 -7.96875 C 6.050781 -8.21875 6.066406 -8.398438 6.078125 -8.515625 C 6.085938 -8.628906 6.109375 -8.773438 6.140625 -8.953125 C 6.171875 -9.140625 6.210938 -9.3125 6.265625 -9.46875 C 6.285156 -9.65625 6.335938 -9.984375 6.421875 -10.453125 C 6.515625 -10.929688 6.5625 -11.179688 6.5625 -11.203125 C 6.59375 -11.492188 6.75 -11.6875 7.03125 -11.78125 C 7.195312 -11.769531 7.375 -11.710938 7.5625 -11.609375 C 7.75 -11.515625 7.851562 -11.410156 7.875 -11.296875 C 7.976562 -11.054688 8.046875 -10.671875 8.078125 -10.140625 L 8.0625 -8.921875 C 8.0625 -8.554688 8 -7.832031 7.875 -6.75 C 7.84375 -6.539062 7.742188 -6.238281 7.578125 -5.84375 C 7.421875 -5.457031 7.332031 -5.160156 7.3125 -4.953125 L 7.3125 -3.984375 L 7.40625 -3.71875 L 7.6875 -2.765625 C 7.75 -2.523438 7.828125 -2.289062 7.921875 -2.0625 C 8.015625 -1.832031 8.128906 -1.554688 8.265625 -1.234375 C 8.398438 -0.910156 8.492188 -0.691406 8.546875 -0.578125 C 8.566406 -0.273438 8.503906 -0.0625 8.359375 0.0625 C 8.316406 0.125 8.257812 0.15625 8.1875 0.15625 C 7.988281 0.15625 7.773438 0.0820312 7.546875 -0.0625 C 7.078125 -0.53125 6.710938 -1.320312 6.453125 -2.4375 C 6.054688 -1.800781 5.773438 -1.40625 5.609375 -1.25 C 4.890625 -0.507812 4.222656 -0.0351562 3.609375 0.171875 C 3.003906 0.242188 2.632812 0.28125 2.5 0.28125 Z M 1.90625 -2.1875 C 1.820312 -1.851562 1.890625 -1.59375 2.109375 -1.40625 C 2.328125 -1.21875 2.601562 -1.125 2.9375 -1.125 C 3.164062 -1.125 3.363281 -1.164062 3.53125 -1.25 C 4.40625 -1.695312 5.15625 -2.671875 5.78125 -4.171875 C 5.757812 -4.109375 5.679688 -4.082031 5.546875 -4.09375 C 5.410156 -4.101562 5.332031 -4.109375 5.3125 -4.109375 C 4.59375 -4.210938 3.960938 -4.238281 3.421875 -4.1875 C 2.398438 -3.664062 1.894531 -3 1.90625 -2.1875 Z M 1.90625 -2.1875 "/>
</g>
<g id="glyph-0-19">
<path d="M 1.84375 0.015625 C 1.414062 0.0664062 1.164062 0.00390625 1.09375 -0.171875 C 1.0625 -0.210938 1.019531 -0.3125 0.96875 -0.46875 C 0.925781 -0.625 0.90625 -0.710938 0.90625 -0.734375 L 0.90625 -4.375 C 0.9375 -4.644531 1.066406 -4.78125 1.296875 -4.78125 C 1.410156 -4.78125 1.53125 -4.734375 1.65625 -4.640625 C 1.789062 -4.554688 1.890625 -4.453125 1.953125 -4.328125 L 2.046875 -3.859375 C 2.003906 -3.640625 2.03125 -3.222656 2.125 -2.609375 C 2.601562 -3.210938 2.921875 -3.691406 3.078125 -4.046875 C 3.296875 -4.296875 3.390625 -4.550781 3.359375 -4.8125 C 3.796875 -5.0625 4.175781 -5.15625 4.5 -5.09375 C 4.675781 -5.050781 4.863281 -4.828125 5.0625 -4.421875 L 5.0625 -2.703125 C 5.25 -2.898438 5.492188 -3.207031 5.796875 -3.625 C 6.109375 -4.050781 6.34375 -4.351562 6.5 -4.53125 C 6.789062 -4.9375 7.070312 -5.222656 7.34375 -5.390625 C 7.769531 -5.335938 8.085938 -5.175781 8.296875 -4.90625 C 8.585938 -4.414062 8.773438 -3.71875 8.859375 -2.8125 C 8.847656 -2.632812 8.859375 -2.445312 8.890625 -2.25 C 8.921875 -2.050781 8.96875 -1.832031 9.03125 -1.59375 C 9.09375 -1.351562 9.132812 -1.160156 9.15625 -1.015625 C 9.25 -0.734375 9.28125 -0.476562 9.25 -0.25 C 9.238281 -0.125 9.171875 -0.0390625 9.046875 0 C 8.929688 0.0390625 8.8125 0.046875 8.6875 0.015625 C 8.46875 -0.0351562 8.273438 -0.222656 8.109375 -0.546875 C 8.046875 -0.691406 7.984375 -0.835938 7.921875 -0.984375 C 7.867188 -1.128906 7.816406 -1.304688 7.765625 -1.515625 C 7.722656 -1.734375 7.695312 -1.878906 7.6875 -1.953125 C 7.675781 -2.023438 7.648438 -2.210938 7.609375 -2.515625 C 7.566406 -2.816406 7.546875 -2.976562 7.546875 -3 C 7.472656 -3.195312 7.394531 -3.296875 7.3125 -3.296875 C 7.269531 -3.273438 7.191406 -3.210938 7.078125 -3.109375 C 6.972656 -3.015625 6.863281 -2.914062 6.75 -2.8125 C 6.644531 -2.707031 6.53125 -2.59375 6.40625 -2.46875 C 6.289062 -2.34375 6.222656 -2.269531 6.203125 -2.25 L 6.0625 -2.046875 L 5.5 -1.3125 L 5.359375 -1.109375 C 5.316406 -1.066406 5.242188 -0.972656 5.140625 -0.828125 C 5.035156 -0.679688 4.941406 -0.570312 4.859375 -0.5 C 4.785156 -0.4375 4.703125 -0.382812 4.609375 -0.34375 C 4.429688 -0.3125 4.269531 -0.328125 4.125 -0.390625 C 3.976562 -0.460938 3.882812 -0.578125 3.84375 -0.734375 C 3.78125 -0.816406 3.75 -0.910156 3.75 -1.015625 L 3.75 -2.75 L 3.71875 -2.75 C 3.675781 -2.769531 3.648438 -2.773438 3.640625 -2.765625 C 3.085938 -1.992188 2.554688 -1.128906 2.046875 -0.171875 C 1.953125 -0.046875 1.882812 0.015625 1.84375 0.015625 Z M 1.84375 0.015625 "/>
</g>
<g id="glyph-0-20">
<path d="M 3.5625 5.484375 C 3.414062 5.546875 3.257812 5.578125 3.09375 5.578125 C 2.9375 5.578125 2.8125 5.546875 2.71875 5.484375 C 2.53125 5.109375 2.4375 4.753906 2.4375 4.421875 L 2.4375 4.25 C 2.65625 3.78125 3.050781 2.828125 3.625 1.390625 C 3.738281 1.097656 3.945312 0.585938 4.25 -0.140625 C 4.5625 -0.878906 4.789062 -1.421875 4.9375 -1.765625 C 4.476562 -1.203125 4.070312 -0.773438 3.71875 -0.484375 C 3.363281 -0.191406 3.019531 -0.046875 2.6875 -0.046875 C 2.4375 -0.046875 2.195312 -0.144531 1.96875 -0.34375 C 1.507812 -0.5625 1.140625 -1.132812 0.859375 -2.0625 C 0.785156 -2.34375 0.75 -2.644531 0.75 -2.96875 C 0.75 -3.300781 0.765625 -3.59375 0.796875 -3.84375 C 0.835938 -4.09375 0.882812 -4.398438 0.9375 -4.765625 C 0.988281 -5.128906 1.023438 -5.429688 1.046875 -5.671875 C 1.140625 -6.003906 1.382812 -6.171875 1.78125 -6.171875 C 1.957031 -6.171875 2.125 -6.128906 2.28125 -6.046875 C 2.53125 -5.878906 2.628906 -5.675781 2.578125 -5.4375 C 2.566406 -5.363281 2.46875 -5.1875 2.28125 -4.90625 C 2.125 -4.414062 2.0625 -3.6875 2.09375 -2.71875 C 2.101562 -2.40625 2.195312 -2.132812 2.375 -1.90625 C 2.550781 -1.6875 2.742188 -1.535156 2.953125 -1.453125 C 3.097656 -1.460938 3.226562 -1.492188 3.34375 -1.546875 C 3.46875 -1.609375 3.59375 -1.703125 3.71875 -1.828125 C 3.851562 -1.960938 3.957031 -2.070312 4.03125 -2.15625 C 4.101562 -2.238281 4.210938 -2.378906 4.359375 -2.578125 C 4.515625 -2.773438 4.625 -2.914062 4.6875 -3 C 4.84375 -3.289062 5.066406 -3.632812 5.359375 -4.03125 C 5.648438 -4.4375 5.828125 -4.757812 5.890625 -5 C 5.898438 -5.039062 5.914062 -5.113281 5.9375 -5.21875 C 5.96875 -5.332031 5.992188 -5.421875 6.015625 -5.484375 C 6.035156 -5.546875 6.066406 -5.613281 6.109375 -5.6875 C 6.160156 -5.757812 6.210938 -5.8125 6.265625 -5.84375 C 6.503906 -5.976562 6.742188 -6.046875 6.984375 -6.046875 C 7.265625 -6.046875 7.5 -5.953125 7.6875 -5.765625 C 7.90625 -5.460938 7.8125 -5.015625 7.40625 -4.421875 L 6.46875 -2.71875 C 6.425781 -2.664062 6.367188 -2.5625 6.296875 -2.40625 C 6.222656 -2.25 6.1875 -2.160156 6.1875 -2.140625 C 6.144531 -2.035156 6.023438 -1.695312 5.828125 -1.125 C 5.640625 -0.5625 5.535156 -0.238281 5.515625 -0.15625 C 5.398438 0.175781 5.179688 0.773438 4.859375 1.640625 C 4.546875 2.515625 4.289062 3.207031 4.09375 3.71875 C 4.050781 3.800781 4.019531 3.867188 4 3.921875 C 3.976562 3.972656 3.960938 4.023438 3.953125 4.078125 C 3.953125 4.128906 3.941406 4.234375 3.921875 4.390625 C 3.910156 4.546875 3.890625 4.722656 3.859375 4.921875 C 3.835938 5.191406 3.738281 5.378906 3.5625 5.484375 Z M 3.5625 5.484375 "/>
</g>
<g id="glyph-0-21">
<path d="M 4.546875 0.109375 C 4.265625 0.109375 3.898438 0.09375 3.453125 0.0625 C 2.660156 -0.1875 2.09375 -0.535156 1.75 -0.984375 C 1.3125 -1.460938 0.992188 -2.160156 0.796875 -3.078125 C 0.722656 -3.398438 0.703125 -3.910156 0.734375 -4.609375 C 0.773438 -5.304688 0.832031 -5.804688 0.90625 -6.109375 C 0.90625 -6.140625 1 -6.4375 1.1875 -7 C 1.375 -7.5625 1.484375 -7.878906 1.515625 -7.953125 C 1.523438 -7.992188 1.535156 -8.078125 1.546875 -8.203125 C 1.566406 -8.335938 1.585938 -8.460938 1.609375 -8.578125 C 1.628906 -8.691406 1.65625 -8.769531 1.6875 -8.8125 C 1.78125 -8.914062 1.90625 -9.003906 2.0625 -9.078125 C 2.21875 -9.160156 2.359375 -9.195312 2.484375 -9.1875 C 2.648438 -9.125 2.789062 -8.992188 2.90625 -8.796875 C 3.03125 -8.597656 3.070312 -8.410156 3.03125 -8.234375 C 3.007812 -8.171875 2.945312 -8.007812 2.84375 -7.75 C 2.738281 -7.5 2.644531 -7.269531 2.5625 -7.0625 C 2.476562 -6.863281 2.398438 -6.648438 2.328125 -6.421875 C 2.265625 -6.191406 2.226562 -6.023438 2.21875 -5.921875 C 2.207031 -5.847656 2.175781 -5.609375 2.125 -5.203125 C 2.070312 -4.796875 2.039062 -4.507812 2.03125 -4.34375 C 2.019531 -4.1875 2.023438 -3.957031 2.046875 -3.65625 C 2.066406 -3.363281 2.125 -3.101562 2.21875 -2.875 C 2.40625 -2.5 2.597656 -2.191406 2.796875 -1.953125 C 2.992188 -1.722656 3.25 -1.554688 3.5625 -1.453125 C 3.84375 -1.335938 4.191406 -1.28125 4.609375 -1.28125 C 4.941406 -1.28125 5.1875 -1.320312 5.34375 -1.40625 C 5.4375 -1.445312 5.566406 -1.5 5.734375 -1.5625 C 5.898438 -1.632812 6.03125 -1.6875 6.125 -1.71875 C 6.226562 -1.75 6.335938 -1.800781 6.453125 -1.875 C 6.566406 -1.957031 6.664062 -2.039062 6.75 -2.125 C 6.820312 -2.195312 6.914062 -2.289062 7.03125 -2.40625 C 7.144531 -2.519531 7.234375 -2.613281 7.296875 -2.6875 C 7.367188 -2.769531 7.453125 -2.875 7.546875 -3 C 7.640625 -3.125 7.734375 -3.269531 7.828125 -3.4375 C 7.941406 -3.632812 8.085938 -4.046875 8.265625 -4.671875 C 8.441406 -5.304688 8.554688 -5.679688 8.609375 -5.796875 C 8.628906 -5.867188 8.644531 -6.101562 8.65625 -6.5 C 8.675781 -6.90625 8.703125 -7.164062 8.734375 -7.28125 C 8.753906 -7.476562 8.753906 -7.664062 8.734375 -7.84375 C 8.734375 -7.863281 8.695312 -7.957031 8.625 -8.125 C 8.5625 -8.289062 8.53125 -8.390625 8.53125 -8.421875 C 8.4375 -8.671875 8.5625 -8.925781 8.90625 -9.1875 C 9.238281 -9.226562 9.523438 -9.160156 9.765625 -8.984375 C 9.859375 -8.878906 9.953125 -8.722656 10.046875 -8.515625 C 10.140625 -8.304688 10.175781 -8.15625 10.15625 -8.0625 C 10.144531 -7.90625 10.15625 -7.691406 10.1875 -7.421875 C 10.21875 -7.148438 10.234375 -6.898438 10.234375 -6.671875 C 10.234375 -6.441406 10.195312 -6.242188 10.125 -6.078125 C 10.125 -5.640625 10.019531 -5.054688 9.8125 -4.328125 C 9.613281 -3.609375 9.394531 -3.0625 9.15625 -2.6875 C 9.0625 -2.539062 8.972656 -2.410156 8.890625 -2.296875 C 8.816406 -2.191406 8.722656 -2.078125 8.609375 -1.953125 C 8.492188 -1.835938 8.410156 -1.753906 8.359375 -1.703125 C 8.316406 -1.660156 8.210938 -1.5625 8.046875 -1.40625 C 7.878906 -1.25 7.769531 -1.148438 7.71875 -1.109375 C 7.28125 -0.597656 6.46875 -0.222656 5.28125 0.015625 C 5.15625 0.078125 4.910156 0.109375 4.546875 0.109375 Z M 4.546875 0.109375 "/>
</g>
<g id="glyph-0-22">
<path d="M 1.34375 0.390625 C 0.988281 0.472656 0.691406 0.285156 0.453125 -0.171875 L 0.59375 -0.921875 L 2.15625 -1.3125 C 2.375 -1.351562 2.5 -1.445312 2.53125 -1.59375 C 2.644531 -1.84375 2.742188 -2.429688 2.828125 -3.359375 C 2.921875 -4.285156 2.992188 -4.859375 3.046875 -5.078125 C 3.203125 -6.222656 3.253906 -7.082031 3.203125 -7.65625 C 3.054688 -7.707031 2.914062 -7.734375 2.78125 -7.734375 C 2.695312 -7.734375 2.5625 -7.722656 2.375 -7.703125 C 2.1875 -7.679688 2.046875 -7.671875 1.953125 -7.671875 C 1.867188 -7.617188 1.757812 -7.59375 1.625 -7.59375 C 1.445312 -7.59375 1.300781 -7.617188 1.1875 -7.671875 C 0.976562 -7.804688 0.851562 -8.0625 0.8125 -8.4375 C 0.800781 -8.519531 0.882812 -8.65625 1.0625 -8.84375 C 1.238281 -9.03125 1.425781 -9.179688 1.625 -9.296875 C 1.851562 -9.316406 2.085938 -9.25 2.328125 -9.09375 L 3.46875 -9.09375 C 3.644531 -9.15625 3.738281 -9.1875 3.75 -9.1875 C 3.769531 -9.195312 3.832031 -9.257812 3.9375 -9.375 C 4.050781 -9.5 4.148438 -9.5625 4.234375 -9.5625 C 4.515625 -9.582031 4.703125 -9.519531 4.796875 -9.375 L 5.453125 -9.375 C 5.566406 -9.394531 5.675781 -9.414062 5.78125 -9.4375 C 5.894531 -9.46875 5.960938 -9.488281 5.984375 -9.5 C 6.003906 -9.507812 6.046875 -9.515625 6.109375 -9.515625 C 6.179688 -9.523438 6.242188 -9.523438 6.296875 -9.515625 C 6.347656 -9.515625 6.445312 -9.507812 6.59375 -9.5 L 6.953125 -9.5 C 7.171875 -9.394531 7.351562 -9.222656 7.5 -8.984375 C 7.644531 -8.753906 7.691406 -8.546875 7.640625 -8.359375 C 7.492188 -8.296875 7.363281 -8.242188 7.25 -8.203125 C 7.132812 -8.160156 7.03125 -8.125 6.9375 -8.09375 C 6.84375 -8.070312 6.765625 -8.050781 6.703125 -8.03125 C 6.640625 -8.019531 6.566406 -8.007812 6.484375 -8 C 6.410156 -8 6.359375 -8 6.328125 -8 C 6.296875 -8 6.234375 -8 6.140625 -8 C 6.046875 -8 5.984375 -8 5.953125 -8 C 5.691406 -8 5.460938 -7.984375 5.265625 -7.953125 C 5.234375 -7.953125 5.207031 -7.945312 5.1875 -7.9375 L 4.875 -7.875 C 4.851562 -7.863281 4.828125 -7.859375 4.796875 -7.859375 C 4.785156 -7.859375 4.765625 -7.84375 4.734375 -7.8125 C 4.710938 -7.789062 4.703125 -7.773438 4.703125 -7.765625 C 4.617188 -7.421875 4.492188 -6.65625 4.328125 -5.46875 C 4.160156 -4.289062 4.035156 -3.535156 3.953125 -3.203125 C 3.941406 -3.117188 3.925781 -2.953125 3.90625 -2.703125 C 3.882812 -2.460938 3.867188 -2.285156 3.859375 -2.171875 C 3.859375 -2.054688 3.863281 -1.894531 3.875 -1.6875 C 3.875 -1.664062 3.90625 -1.628906 3.96875 -1.578125 C 4.03125 -1.535156 4.09375 -1.507812 4.15625 -1.5 C 5.25 -1.632812 5.960938 -1.695312 6.296875 -1.6875 C 6.304688 -1.6875 6.375 -1.675781 6.5 -1.65625 C 6.632812 -1.644531 6.734375 -1.628906 6.796875 -1.609375 C 6.867188 -1.597656 6.953125 -1.578125 7.046875 -1.546875 C 7.148438 -1.515625 7.226562 -1.46875 7.28125 -1.40625 C 7.332031 -1.351562 7.363281 -1.289062 7.375 -1.21875 C 7.40625 -1.125 7.398438 -1.007812 7.359375 -0.875 C 7.316406 -0.738281 7.257812 -0.660156 7.1875 -0.640625 C 6.882812 -0.535156 6.160156 -0.378906 5.015625 -0.171875 C 4.960938 -0.171875 4.914062 -0.164062 4.875 -0.15625 L 4.375 -0.09375 C 4.332031 -0.0820312 4.289062 -0.078125 4.25 -0.078125 C 3.90625 -0.015625 3.617188 0.109375 3.390625 0.296875 L 2.921875 0.296875 L 2.53125 0.1875 C 2.363281 0.195312 2.148438 0.226562 1.890625 0.28125 C 1.640625 0.34375 1.457031 0.378906 1.34375 0.390625 Z M 1.34375 0.390625 "/>
</g>
<g id="glyph-0-23">
<path d="M 8.0625 0.78125 C 7.9375 0.78125 7.8125 0.75 7.6875 0.6875 C 7.539062 0.570312 7.347656 0.328125 7.109375 -0.046875 L 7.03125 -0.1875 C 7.019531 -0.320312 7.050781 -0.515625 7.125 -0.765625 C 7.195312 -1.015625 7.222656 -1.203125 7.203125 -1.328125 C 7.203125 -1.429688 7.148438 -1.597656 7.046875 -1.828125 C 6.984375 -1.890625 6.945312 -1.921875 6.9375 -1.921875 L 6.796875 -2 C 6.585938 -1.945312 6.140625 -1.863281 5.453125 -1.75 C 4.765625 -1.632812 4.289062 -1.523438 4.03125 -1.421875 C 3.851562 -1.367188 3.707031 -1.34375 3.59375 -1.34375 C 3.476562 -1.34375 3.34375 -1.363281 3.1875 -1.40625 L 3.109375 -1.40625 C 3.066406 -1.375 2.9375 -1.25 2.71875 -1.03125 C 2.5 -0.820312 2.289062 -0.625 2.09375 -0.4375 C 1.894531 -0.257812 1.757812 -0.144531 1.6875 -0.09375 C 1.582031 -0.0078125 1.40625 0.113281 1.15625 0.28125 C 0.90625 0.445312 0.722656 0.570312 0.609375 0.65625 C 0.265625 0.65625 0.09375 0.5625 0.09375 0.375 C 0.03125 0.0390625 0.148438 -0.300781 0.453125 -0.65625 L 1.875 -1.984375 C 2.351562 -2.535156 2.882812 -3.210938 3.46875 -4.015625 C 4.0625 -4.828125 4.519531 -5.421875 4.84375 -5.796875 C 4.945312 -5.941406 5.113281 -6.1875 5.34375 -6.53125 C 5.570312 -6.882812 5.738281 -7.148438 5.84375 -7.328125 C 5.945312 -7.515625 6.078125 -7.75 6.234375 -8.03125 C 6.398438 -8.320312 6.523438 -8.597656 6.609375 -8.859375 C 6.703125 -9.128906 6.78125 -9.410156 6.84375 -9.703125 C 6.84375 -9.710938 6.863281 -9.804688 6.90625 -9.984375 C 6.945312 -10.160156 6.960938 -10.257812 6.953125 -10.28125 C 7.191406 -10.59375 7.429688 -10.753906 7.671875 -10.765625 L 7.84375 -10.78125 C 8.039062 -10.78125 8.207031 -10.707031 8.34375 -10.5625 C 8.488281 -10.425781 8.554688 -10.273438 8.546875 -10.109375 L 8.4375 -8.515625 C 8.425781 -8.359375 8.410156 -8.148438 8.390625 -7.890625 C 8.378906 -7.628906 8.367188 -7.421875 8.359375 -7.265625 C 8.347656 -7.109375 8.335938 -7 8.328125 -6.9375 C 8.335938 -6.4375 8.335938 -6.0625 8.328125 -5.8125 C 8.328125 -5.5625 8.316406 -5.1875 8.296875 -4.6875 C 8.285156 -4.1875 8.28125 -3.8125 8.28125 -3.5625 C 8.382812 -3.457031 8.503906 -3.40625 8.640625 -3.40625 C 8.660156 -3.40625 8.710938 -3.394531 8.796875 -3.375 C 8.890625 -3.363281 8.960938 -3.351562 9.015625 -3.34375 C 9.066406 -3.332031 9.125 -3.316406 9.1875 -3.296875 C 9.25 -3.273438 9.300781 -3.242188 9.34375 -3.203125 C 9.394531 -3.171875 9.4375 -3.125 9.46875 -3.0625 C 9.476562 -3.039062 9.476562 -3 9.46875 -2.9375 C 9.46875 -2.875 9.460938 -2.832031 9.453125 -2.8125 C 9.335938 -2.71875 9.046875 -2.554688 8.578125 -2.328125 C 8.535156 -2.316406 8.492188 -2.289062 8.453125 -2.25 C 8.410156 -2.113281 8.429688 -1.859375 8.515625 -1.484375 C 8.609375 -1.117188 8.65625 -0.910156 8.65625 -0.859375 C 8.664062 -0.765625 8.6875 -0.625 8.71875 -0.4375 C 8.75 -0.257812 8.769531 -0.117188 8.78125 -0.015625 C 8.789062 0.0859375 8.769531 0.207031 8.71875 0.34375 C 8.664062 0.476562 8.570312 0.59375 8.4375 0.6875 C 8.332031 0.75 8.207031 0.78125 8.0625 0.78125 Z M 4.328125 -2.90625 C 4.390625 -2.90625 4.519531 -2.90625 4.71875 -2.90625 C 4.925781 -2.914062 5.078125 -2.921875 5.171875 -2.921875 C 5.265625 -2.929688 5.398438 -2.941406 5.578125 -2.953125 C 5.765625 -2.972656 5.914062 -2.992188 6.03125 -3.015625 C 6.15625 -3.035156 6.289062 -3.066406 6.4375 -3.109375 C 6.59375 -3.148438 6.734375 -3.191406 6.859375 -3.234375 L 6.953125 -3.3125 L 7.015625 -4.046875 L 7.015625 -4.734375 L 7 -6.0625 L 7 -6.75 C 6.84375 -6.644531 6.675781 -6.421875 6.5 -6.078125 C 6.332031 -5.742188 6.179688 -5.515625 6.046875 -5.390625 C 5.847656 -5.054688 5.519531 -4.601562 5.0625 -4.03125 C 4.613281 -3.46875 4.34375 -3.117188 4.25 -2.984375 C 4.238281 -2.972656 4.242188 -2.957031 4.265625 -2.9375 C 4.296875 -2.914062 4.316406 -2.90625 4.328125 -2.90625 Z M 4.328125 -2.90625 "/>
</g>
<g id="glyph-0-24">
<path d="M 1.546875 0.296875 C 1.160156 -0.00390625 0.96875 -0.378906 0.96875 -0.828125 C 0.988281 -1.492188 1.054688 -2.28125 1.171875 -3.1875 C 1.222656 -3.625 1.316406 -4.195312 1.453125 -4.90625 C 1.597656 -5.625 1.691406 -6.128906 1.734375 -6.421875 C 1.890625 -6.972656 1.953125 -7.664062 1.921875 -8.5 C 1.734375 -8.59375 1.578125 -8.691406 1.453125 -8.796875 C 1.210938 -9.054688 1.113281 -9.3125 1.15625 -9.5625 C 1.113281 -9.8125 1.179688 -10.03125 1.359375 -10.21875 C 1.546875 -10.40625 1.769531 -10.5 2.03125 -10.5 C 2.15625 -10.5 2.28125 -10.46875 2.40625 -10.40625 C 2.457031 -10.34375 2.613281 -10.25 2.875 -10.125 C 2.9375 -10.0625 3 -10.03125 3.0625 -10.03125 C 3.320312 -9.90625 3.484375 -9.84375 3.546875 -9.84375 C 4.640625 -9.644531 5.679688 -9.359375 6.671875 -8.984375 C 8.109375 -8.546875 9.1875 -7.851562 9.90625 -6.90625 C 9.925781 -6.84375 9.960938 -6.757812 10.015625 -6.65625 C 10.078125 -6.5625 10.117188 -6.484375 10.140625 -6.421875 C 10.171875 -6.359375 10.179688 -6.285156 10.171875 -6.203125 C 10.171875 -6.117188 10.140625 -6.035156 10.078125 -5.953125 C 9.867188 -5.566406 9.523438 -5.25 9.046875 -5 C 8.578125 -4.789062 7.835938 -4.625 6.828125 -4.5 C 5.816406 -4.375 5.195312 -4.289062 4.96875 -4.25 C 4.570312 -4.082031 4.191406 -4.015625 3.828125 -4.046875 C 3.316406 -3.992188 2.9375 -3.898438 2.6875 -3.765625 C 2.644531 -3.722656 2.613281 -3.65625 2.59375 -3.5625 C 2.539062 -3.4375 2.503906 -3.300781 2.484375 -3.15625 C 2.460938 -3.019531 2.457031 -2.890625 2.46875 -2.765625 C 2.476562 -2.648438 2.476562 -2.507812 2.46875 -2.34375 C 2.445312 -1.851562 2.519531 -1.378906 2.6875 -0.921875 C 2.695312 -0.847656 2.691406 -0.769531 2.671875 -0.6875 C 2.648438 -0.601562 2.625 -0.53125 2.59375 -0.46875 C 2.570312 -0.414062 2.535156 -0.34375 2.484375 -0.25 C 2.441406 -0.164062 2.414062 -0.109375 2.40625 -0.078125 C 2.070312 0.253906 1.785156 0.378906 1.546875 0.296875 Z M 4.578125 -5.46875 C 4.753906 -5.5 5.128906 -5.5625 5.703125 -5.65625 C 6.285156 -5.75 6.734375 -5.8125 7.046875 -5.84375 C 7.097656 -5.851562 7.203125 -5.875 7.359375 -5.90625 C 7.523438 -5.9375 7.640625 -5.960938 7.703125 -5.984375 C 7.765625 -6.003906 7.851562 -6.03125 7.96875 -6.0625 C 8.09375 -6.101562 8.203125 -6.140625 8.296875 -6.171875 C 8.390625 -6.210938 8.476562 -6.265625 8.5625 -6.328125 C 8.570312 -6.335938 8.578125 -6.367188 8.578125 -6.421875 C 8.578125 -6.484375 8.570312 -6.519531 8.5625 -6.53125 C 8.507812 -6.59375 8.425781 -6.671875 8.3125 -6.765625 C 8.207031 -6.859375 8.101562 -6.9375 8 -7 C 7.90625 -7.0625 7.789062 -7.128906 7.65625 -7.203125 C 7.519531 -7.285156 7.441406 -7.335938 7.421875 -7.359375 C 7.078125 -7.410156 6.535156 -7.554688 5.796875 -7.796875 C 5.054688 -8.035156 4.554688 -8.175781 4.296875 -8.21875 C 4.253906 -8.21875 4.179688 -8.222656 4.078125 -8.234375 C 3.972656 -8.242188 3.878906 -8.242188 3.796875 -8.234375 C 3.722656 -8.222656 3.664062 -8.1875 3.625 -8.125 C 3.59375 -8.082031 3.539062 -7.976562 3.46875 -7.8125 C 3.394531 -7.65625 3.351562 -7.570312 3.34375 -7.5625 C 3.332031 -7.425781 3.257812 -7.109375 3.125 -6.609375 C 2.988281 -6.117188 2.925781 -5.78125 2.9375 -5.59375 L 3.09375 -5.59375 C 3.363281 -5.59375 3.859375 -5.550781 4.578125 -5.46875 Z M 4.578125 -5.46875 "/>
</g>
</g>
</defs>
<path fill-rule="nonzero" fill="rgb(100%, 100%, 100%)" fill-opacity="1" d="M 25 25 L 847 25 L 847 454 L 25 454 Z M 25 25 "/>
<path fill="none" stroke-width="1" stroke-linecap="round" stroke-linejoin="miter" stroke="rgb(11.764526%, 11.764526%, 11.764526%)" stroke-opacity="1" stroke-miterlimit="4" d="M 44.229167 0.458333 C 52.510417 -1.708333 64.208333 0.25 72.75 3.46875 C 81.302083 6.6875 89.609375 12.71875 95.5 19.75 C 101.401042 26.791667 106.458333 36.739583 108.119792 45.697917 C 109.770833 54.671875 108.671875 65.182292 105.4375 73.541667 C 102.208333 81.901042 95.671875 90.0625 88.729167 95.838542 C 81.791667 101.619792 72.5625 106.578125 63.791667 108.229167 C 55.020833 109.890625 44.520833 108.729167 36.130208 105.75 C 27.739583 102.770833 19.479167 97.401042 13.4375 90.369792 C 7.401042 83.338542 1.671875 72.661458 -0.109375 63.5625 C -1.890625 54.458333 -0.567708 44.140625 2.770833 35.770833 C 6.119792 27.401042 11.802083 19.25 19.96875 13.338542 C 28.130208 7.432292 45.067708 2.25 51.75 0.291667 C 58.4375 -1.661458 60.0625 0.567708 60.067708 1.588542 M 35.208333 3.640625 C 42.802083 0.119792 53.901042 0.671875 62.791667 1.848958 C 71.6875 3.020833 81.708333 5.390625 88.567708 10.71875 C 95.432292 16.041667 100.739583 25.260417 103.947917 33.802083 C 107.151042 42.328125 109.010417 52.5 107.8125 61.932292 C 106.619792 71.348958 102.182292 82.958333 96.791667 90.328125 C 91.390625 97.697917 84.161458 103.067708 75.4375 106.130208 C 66.729167 109.182292 53.53125 110.317708 44.5 108.630208 C 35.46875 106.947917 28.239583 101.630208 21.25 96.03125 C 14.260417 90.421875 6.088542 83.4375 2.552083 75.020833 C -0.989583 66.598958 -1.708333 54.619792 -0.000000000000007105 45.510417 C 1.697917 36.411458 7.03125 27.479167 12.802083 20.401042 C 18.5625 13.317708 30.609375 5.640625 34.5625 3.041667 C 38.520833 0.4375 36.338542 3.791667 36.520833 4.817708 " transform="matrix(0.75, 0, 0, 0.75, 32.5, 193.75)"/>
<g fill="rgb(11.764526%, 11.764526%, 11.764526%)" fill-opacity="1">
<use xlink:href="#glyph-0-0" x="58.047011" y="238.43701"/>
</g>
<g fill="rgb(11.764526%, 11.764526%, 11.764526%)" fill-opacity="1">
<use xlink:href="#glyph-0-1" x="66.267011" y="238.43701"/>
</g>
<g fill="rgb(11.764526%, 11.764526%, 11.764526%)" fill-opacity="1">
<use xlink:href="#glyph-0-2" x="74.412011" y="238.43701"/>
</g>
<g fill="rgb(11.764526%, 11.764526%, 11.764526%)" fill-opacity="1">
<use xlink:href="#glyph-0-3" x="82.467011" y="238.43701"/>
</g>
<path fill-rule="nonzero" fill="rgb(100%, 78.822327%, 78.822327%)" fill-opacity="1" d="M 244.75 174.25 C 263.265625 172.515625 284.882812 172.515625 322 174.25 C 335.394531 172.703125 346.796875 183.933594 346 198.25 C 344.925781 218.484375 346.839844 242.214844 346 277 C 345.429688 295.34375 337.667969 301.425781 322 301 C 290.363281 301.023438 264.113281 303.953125 244.75 301 C 229.449219 302.867188 221.867188 294.476562 220.75 277 C 219.078125 260.3125 221.15625 240.910156 220.75 198.25 C 219.761719 184.515625 229.585938 174.84375 244.75 174.25 "/>
<path fill="none" stroke-width="1" stroke-linecap="round" stroke-linejoin="miter" stroke="rgb(11.764526%, 11.764526%, 11.764526%)" stroke-opacity="1" stroke-miterlimit="4" d="M 32 -0.000000000000028422 C 65.567708 -1.958333 102.067708 1.640625 135 -0.000000000000028422 M 32 -0.000000000000028422 C 65.302083 1.567708 100.958333 1.598958 135 -0.000000000000028422 M 135 -0.000000000000028422 C 158.171875 0.739583 168.3125 10.010417 167 32 M 135 -0.000000000000028422 C 158.421875 1.869792 167.708333 10.239583 167 32 M 167 32 C 166.619792 62.71875 169.161458 97.010417 167 137 M 167 32 C 166.338542 61.96875 167.088542 93.890625 167 137 M 167 137 C 168.588542 156.619792 156.119792 170.489583 135 169 M 167 137 C 165.130208 159.71875 155.802083 167.260417 135 169 M 135 169 C 94.890625 171.3125 53.0625 167.911458 32 169 M 135 169 C 104.760417 169.520833 76.21875 170.208333 32 169 M 32 169 C 11.411458 168.119792 -0.0208333 157.598958 -0.000000000000056843 137 M 32 169 C 11.567708 166.96875 0.708333 160.369792 -0.000000000000056843 137 M -0.000000000000056843 137 C 0.817708 104.432292 -0.890625 71.182292 -0.000000000000056843 32 M -0.000000000000056843 137 C 1.291667 106.661458 0.0989583 76.958333 -0.000000000000056843 32 M -0.000000000000056843 32 C -0.1875 10.71875 11.520833 1.4375 32 -0.000000000000028422 M -0.000000000000056843 32 C 0.640625 12.260417 8.411458 2.171875 32 -0.000000000000028422 " transform="matrix(0.75, 0, 0, 0.75, 220.75, 174.25)"/>
<g fill="rgb(11.764526%, 11.764526%, 11.764526%)" fill-opacity="1">
<use xlink:href="#glyph-0-4" x="238.8475" y="232.09"/>
</g>
<g fill="rgb(11.764526%, 11.764526%, 11.764526%)" fill-opacity="1">
<use xlink:href="#glyph-0-2" x="249.2425" y="232.09"/>
</g>
<g fill="rgb(11.764526%, 11.764526%, 11.764526%)" fill-opacity="1">
<use xlink:href="#glyph-0-5" x="257.2975" y="232.09"/>
</g>
<g fill="rgb(11.764526%, 11.764526%, 11.764526%)" fill-opacity="1">
<use xlink:href="#glyph-0-6" x="265.6225" y="232.09"/>
</g>
<g fill="rgb(11.764526%, 11.764526%, 11.764526%)" fill-opacity="1">
<use xlink:href="#glyph-0-5" x="271.6225" y="232.09"/>
</g>
<g fill="rgb(11.764526%, 11.764526%, 11.764526%)" fill-opacity="1">
<use xlink:href="#glyph-0-3" x="279.9475" y="232.09"/>
</g>
<g fill="rgb(11.764526%, 11.764526%, 11.764526%)" fill-opacity="1">
<use xlink:href="#glyph-0-7" x="286.1275" y="232.09"/>
</g>
<g fill="rgb(11.764526%, 11.764526%, 11.764526%)" fill-opacity="1">
<use xlink:href="#glyph-0-4" x="295.1275" y="232.09"/>
</g>
<g fill="rgb(11.764526%, 11.764526%, 11.764526%)" fill-opacity="1">
<use xlink:href="#glyph-0-1" x="305.5225" y="232.09"/>
</g>
<g fill="rgb(11.764526%, 11.764526%, 11.764526%)" fill-opacity="1">
<use xlink:href="#glyph-0-2" x="313.6675" y="232.09"/>
</g>
<g fill="rgb(11.764526%, 11.764526%, 11.764526%)" fill-opacity="1">
<use xlink:href="#glyph-0-3" x="321.7225" y="232.09"/>
</g>
<g fill="rgb(11.764526%, 11.764526%, 11.764526%)" fill-opacity="1">
<use xlink:href="#glyph-0-8" x="257.635" y="250.84"/>
</g>
<g fill="rgb(11.764526%, 11.764526%, 11.764526%)" fill-opacity="1">
<use xlink:href="#glyph-0-9" x="264.25" y="250.84"/>
</g>
<g fill="rgb(11.764526%, 11.764526%, 11.764526%)" fill-opacity="1">
<use xlink:href="#glyph-0-10" x="271.81" y="250.84"/>
</g>
<g fill="rgb(11.764526%, 11.764526%, 11.764526%)" fill-opacity="1">
<use xlink:href="#glyph-0-11" x="275.185" y="250.84"/>
</g>
<g fill="rgb(11.764526%, 11.764526%, 11.764526%)" fill-opacity="1">
<use xlink:href="#glyph-0-2" x="278.845" y="250.84"/>
</g>
<g fill="rgb(11.764526%, 11.764526%, 11.764526%)" fill-opacity="1">
<use xlink:href="#glyph-0-12" x="286.9" y="250.84"/>
</g>
<g fill="rgb(11.764526%, 11.764526%, 11.764526%)" fill-opacity="1">
<use xlink:href="#glyph-0-13" x="294.79" y="250.84"/>
</g>
<g fill="rgb(11.764526%, 11.764526%, 11.764526%)" fill-opacity="1">
<use xlink:href="#glyph-0-14" x="303.085" y="250.84"/>
</g>
<path fill="none" stroke-width="1" stroke-linecap="round" stroke-linejoin="miter" stroke="rgb(11.764526%, 11.764526%, 11.764526%)" stroke-opacity="1" stroke-miterlimit="4" d="M 0.71875 0.5 C 19.338542 -0.348958 92.541667 -3.171875 110.760417 -4.078125 M -0.369792 -0.28125 C 18.161458 -0.932292 90.890625 -5.161458 109.682292 -5.71875 " transform="matrix(0.75, 0, 0, 0.75, 124.75, 239.5)"/>
<path fill="none" stroke-width="1" stroke-linecap="round" stroke-linejoin="miter" stroke="rgb(11.764526%, 11.764526%, 11.764526%)" stroke-opacity="1" stroke-miterlimit="4" d="M 86.598958 3.890625 C 92.458333 1.21875 98.239583 -2.161458 109.682292 -5.71875 M 86.598958 3.890625 C 94.489583 1.598958 100.671875 -0.921875 109.682292 -5.71875 " transform="matrix(0.75, 0, 0, 0.75, 124.75, 239.5)"/>
<path fill="none" stroke-width="1" stroke-linecap="round" stroke-linejoin="miter" stroke="rgb(11.764526%, 11.764526%, 11.764526%)" stroke-opacity="1" stroke-miterlimit="4" d="M 85.817708 -13.1875 C 91.989583 -12.088542 97.947917 -11.697917 109.682292 -5.71875 M 85.817708 -13.1875 C 94.020833 -10.348958 100.432292 -7.739583 109.682292 -5.71875 " transform="matrix(0.75, 0, 0, 0.75, 124.75, 239.5)"/>
<path fill-rule="nonzero" fill="rgb(100%, 78.822327%, 78.822327%)" fill-opacity="1" d="M 516.25 171.25 C 540.363281 172.988281 568.285156 172.226562 599.5 171.25 C 612.84375 172.988281 625.351562 181.226562 623.5 195.25 C 624.992188 216.738281 624.789062 241.015625 623.5 276.25 C 621.015625 291.203125 615.648438 301.601562 599.5 300.25 C 576.910156 303.128906 560.28125 299.46875 516.25 300.25 C 499.523438 300.550781 492.226562 294.183594 492.25 276.25 C 492.109375 254.378906 489.722656 226.652344 492.25 195.25 C 491.664062 176.890625 500.328125 172.464844 516.25 171.25 "/>
<path fill="none" stroke-width="1" stroke-linecap="round" stroke-linejoin="miter" stroke="rgb(11.764526%, 11.764526%, 11.764526%)" stroke-opacity="1" stroke-miterlimit="4" d="M 32 -0.000000000000028422 C 65.979167 -0.239583 100.140625 1.317708 143 -0.000000000000028422 M 32 -0.000000000000028422 C 58.401042 1.03125 85.338542 0.151042 143 -0.000000000000028422 M 143 -0.000000000000028422 C 163.598958 1.802083 175.958333 9.828125 175 32 M 143 -0.000000000000028422 C 163.911458 -0.901042 176.46875 11.651042 175 32 M 175 32 C 175.708333 73.489583 175.729167 115.348958 175 140 M 175 32 C 174.5 68.890625 174.989583 105.520833 175 140 M 175 140 C 173.239583 159.729167 165.25 170.53125 143 172 M 175 140 C 174.682292 162.96875 163.671875 172.302083 143 172 M 143 172 C 99.328125 170.958333 58.71875 174.067708 32 172 M 143 172 C 111.890625 172.46875 81.239583 172.052083 32 172 M 32 172 C 11.729167 172.682292 -1.182292 162.640625 -0.000000000000227374 140 M 32 172 C 11.369792 173.958333 1.838542 160.979167 -0.000000000000227374 140 M -0.000000000000227374 140 C -1.291667 105.932292 -0.8125 69.5 -0.000000000000227374 32 M -0.000000000000227374 140 C -1.598958 115.651042 -0.369792 90.411458 -0.000000000000227374 32 M -0.000000000000227374 32 C -1.21875 9.140625 12.140625 -1.859375 32 -0.000000000000028422 M -0.000000000000227374 32 C 0.828125 12.520833 12.6875 2.041667 32 -0.000000000000028422 " transform="matrix(0.75, 0, 0, 0.75, 492.25, 171.25)"/>
<g fill="rgb(11.764526%, 11.764526%, 11.764526%)" fill-opacity="1">
<use xlink:href="#glyph-0-4" x="519.2425" y="239.59"/>
</g>
<g fill="rgb(11.764526%, 11.764526%, 11.764526%)" fill-opacity="1">
<use xlink:href="#glyph-0-2" x="529.6375" y="239.59"/>
</g>
<g fill="rgb(11.764526%, 11.764526%, 11.764526%)" fill-opacity="1">
<use xlink:href="#glyph-0-5" x="537.6925" y="239.59"/>
</g>
<g fill="rgb(11.764526%, 11.764526%, 11.764526%)" fill-opacity="1">
<use xlink:href="#glyph-0-6" x="546.0175" y="239.59"/>
</g>
<g fill="rgb(11.764526%, 11.764526%, 11.764526%)" fill-opacity="1">
<use xlink:href="#glyph-0-1" x="552.0175" y="239.59"/>
</g>
<g fill="rgb(11.764526%, 11.764526%, 11.764526%)" fill-opacity="1">
<use xlink:href="#glyph-0-2" x="560.1625" y="239.59"/>
</g>
<g fill="rgb(11.764526%, 11.764526%, 11.764526%)" fill-opacity="1">
<use xlink:href="#glyph-0-3" x="568.2175" y="239.59"/>
</g>
<g fill="rgb(11.764526%, 11.764526%, 11.764526%)" fill-opacity="1">
<use xlink:href="#glyph-0-15" x="574.3975" y="239.59"/>
</g>
<g fill="rgb(11.764526%, 11.764526%, 11.764526%)" fill-opacity="1">
<use xlink:href="#glyph-0-2" x="582.2725" y="239.59"/>
</g>
<g fill="rgb(11.764526%, 11.764526%, 11.764526%)" fill-opacity="1">
<use xlink:href="#glyph-0-3" x="590.3275" y="239.59"/>
</g>
<path fill="none" stroke-width="1" stroke-linecap="round" stroke-linejoin="miter" stroke="rgb(11.764526%, 11.764526%, 11.764526%)" stroke-opacity="1" stroke-miterlimit="4" d="M 0.328125 -0.5 C 28.96875 -0.661458 142.229167 -0.0885417 170.682292 0.130208 M -0.958333 -1.802083 C 27.598958 -1.239583 141.03125 1.609375 169.5625 1.739583 " transform="matrix(0.75, 0, 0, 0.75, 359.5, 229.75)"/>
<path fill="none" stroke-width="1" stroke-linecap="round" stroke-linejoin="miter" stroke="rgb(11.764526%, 11.764526%, 11.764526%)" stroke-opacity="1" stroke-miterlimit="4" d="M 145.932292 9.911458 C 149.828125 7.651042 155.6875 6.510417 169.5625 1.739583 M 145.932292 9.911458 C 154.4375 6.869792 164.380208 2.947917 169.5625 1.739583 " transform="matrix(0.75, 0, 0, 0.75, 359.5, 229.75)"/>
<path fill="none" stroke-width="1" stroke-linecap="round" stroke-linejoin="miter" stroke="rgb(11.764526%, 11.764526%, 11.764526%)" stroke-opacity="1" stroke-miterlimit="4" d="M 146.208333 -7.1875 C 150.21875 -5.979167 156.010417 -3.640625 169.5625 1.739583 M 146.208333 -7.1875 C 154.609375 -3.880208 164.447917 -1.447917 169.5625 1.739583 " transform="matrix(0.75, 0, 0, 0.75, 359.5, 229.75)"/>
<path fill-rule="nonzero" fill="rgb(69.802856%, 94.900513%, 73.332214%)" fill-opacity="1" d="M 690.0625 112.75 C 716.65625 110.628906 744.503906 112.316406 762.4375 112.75 C 774.371094 115.300781 775.449219 116.6875 778 128.3125 C 779.566406 139.164062 776.328125 150.234375 778 159.4375 C 777.046875 168.101562 770.867188 176.019531 762.4375 175 C 745.359375 175.765625 725.148438 172.511719 690.0625 175 C 680.335938 175.621094 675.578125 171.199219 674.5 159.4375 C 672.617188 154.40625 676.328125 143.792969 674.5 128.3125 C 675.21875 117.308594 678.859375 113.949219 690.0625 112.75 "/>
<path fill="none" stroke-width="1" stroke-linecap="round" stroke-linejoin="miter" stroke="rgb(11.764526%, 11.764526%, 11.764526%)" stroke-opacity="1" stroke-miterlimit="4" d="M 20.75 -0.000000000000028422 C 42.302083 0.390625 68.208333 -2.208333 117.25 -0.000000000000028422 M 20.75 -0.000000000000028422 C 48.067708 -0.661458 76.401042 -0.260417 117.25 -0.000000000000028422 M 117.25 -0.000000000000028422 C 129.901042 -1.052083 136.130208 8.458333 138 20.75 M 117.25 -0.000000000000028422 C 132.119792 -0.8125 140.161458 8.270833 138 20.75 M 138 20.75 C 136.380208 28.1875 136.989583 40.041667 138 62.25 M 138 20.75 C 137.458333 32.838542 137.901042 43.0625 138 62.25 M 138 62.25 C 138.432292 74.5625 130.96875 83.052083 117.25 83 M 138 62.25 C 136.848958 74.848958 130.109375 82.229167 117.25 83 M 117.25 83 C 92.911458 83.578125 66.958333 82.161458 20.75 83 M 117.25 83 C 88.328125 82.171875 59.338542 82.0625 20.75 83 M 20.75 83 C 5.932292 81.489583 -1.78125 77.567708 -0.000000000000227374 62.25 M 20.75 83 C 4.979167 80.880208 1.989583 75.682292 -0.000000000000227374 62.25 M -0.000000000000227374 62.25 C 0.197917 49.609375 1.208333 37.697917 -0.000000000000227374 20.75 M -0.000000000000227374 62.25 C 0.989583 48.661458 0.552083 34.510417 -0.000000000000227374 20.75 M -0.000000000000227374 20.75 C -0.161458 7.078125 7.489583 -0.760417 20.75 -0.000000000000028422 M -0.000000000000227374 20.75 C -1.598958 5.208333 6.682292 -0.369792 20.75 -0.000000000000028422 " transform="matrix(0.75, 0, 0, 0.75, 674.5, 112.75)"/>
<g fill="rgb(11.764526%, 11.764526%, 11.764526%)" fill-opacity="1">
<use xlink:href="#glyph-0-2" x="689.0275" y="147.715"/>
</g>
<g fill="rgb(11.764526%, 11.764526%, 11.764526%)" fill-opacity="1">
<use xlink:href="#glyph-0-16" x="697.0825" y="147.715"/>
</g>
<g fill="rgb(11.764526%, 11.764526%, 11.764526%)" fill-opacity="1">
<use xlink:href="#glyph-0-9" x="705.9475" y="147.715"/>
</g>
<g fill="rgb(11.764526%, 11.764526%, 11.764526%)" fill-opacity="1">
<use xlink:href="#glyph-0-17" x="713.5075" y="147.715"/>
</g>
<g fill="rgb(11.764526%, 11.764526%, 11.764526%)" fill-opacity="1">
<use xlink:href="#glyph-0-10" x="722.1475" y="147.715"/>
</g>
<g fill="rgb(11.764526%, 11.764526%, 11.764526%)" fill-opacity="1">
<use xlink:href="#glyph-0-11" x="725.5225" y="147.715"/>
</g>
<g fill="rgb(11.764526%, 11.764526%, 11.764526%)" fill-opacity="1">
<use xlink:href="#glyph-0-18" x="729.1825" y="147.715"/>
</g>
<g fill="rgb(11.764526%, 11.764526%, 11.764526%)" fill-opacity="1">
<use xlink:href="#glyph-0-3" x="738.2575" y="147.715"/>
</g>
<g fill="rgb(11.764526%, 11.764526%, 11.764526%)" fill-opacity="1">
<use xlink:href="#glyph-0-17" x="744.4375" y="147.715"/>
</g>
<g fill="rgb(11.764526%, 11.764526%, 11.764526%)" fill-opacity="1">
<use xlink:href="#glyph-0-4" x="753.0775" y="147.715"/>
</g>
<path fill-rule="nonzero" fill="rgb(69.802856%, 94.900513%, 73.332214%)" fill-opacity="1" d="M 698.3125 215.875 C 720.675781 215.15625 742.53125 216.429688 770.6875 215.875 C 783.210938 214.375 788.949219 220.113281 786.25 231.4375 C 785.769531 240.609375 785.507812 248.792969 786.25 262.5625 C 786.949219 270.300781 783.21875 278.164062 770.6875 278.125 C 745.863281 279.160156 723.371094 277.757812 698.3125 278.125 C 685.675781 275.792969 685.015625 273.128906 682.75 262.5625 C 684.121094 252.199219 682.621094 235.390625 682.75 231.4375 C 683.417969 221.359375 685.929688 216.398438 698.3125 215.875 "/>
<path fill="none" stroke-width="1" stroke-linecap="round" stroke-linejoin="miter" stroke="rgb(11.764526%, 11.764526%, 11.764526%)" stroke-opacity="1" stroke-miterlimit="4" d="M 20.75 -0.000000000000056843 C 57.109375 -1.567708 94.390625 -0.317708 117.25 -0.000000000000056843 M 20.75 -0.000000000000056843 C 54.8125 1.161458 90.041667 0.390625 117.25 -0.000000000000056843 M 117.25 -0.000000000000056843 C 132.151042 0.5625 136.661458 8.197917 138 20.75 M 117.25 -0.000000000000056843 C 130.270833 -1.458333 136.338542 7.791667 138 20.75 M 138 20.75 C 138.390625 31.9375 136.859375 39.932292 138 62.25 M 138 20.75 C 138.609375 33.489583 138.71875 47.03125 138 62.25 M 138 62.25 C 136.859375 77.630208 132.697917 81.96875 117.25 83 M 138 62.25 C 138.619792 75.552083 130.380208 84.020833 117.25 83 M 117.25 83 C 90 83.390625 58.911458 81.770833 20.75 83 M 117.25 83 C 87.291667 83.78125 56.708333 84 20.75 83 M 20.75 83 C 7.489583 81.661458 1.052083 76.052083 -0.000000000000227374 62.25 M 20.75 83 C 7.380208 83.697917 1.041667 75.651042 -0.000000000000227374 62.25 M -0.000000000000227374 62.25 C 0.421875 52.348958 -2.052083 44.661458 -0.000000000000227374 20.75 M -0.000000000000227374 62.25 C 1.010417 53.338542 0.567708 43.270833 -0.000000000000227374 20.75 M -0.000000000000227374 20.75 C 1.791667 8.901042 7.182292 1.109375 20.75 -0.000000000000056843 M -0.000000000000227374 20.75 C -0.0208333 8.53125 7.0625 -1.25 20.75 -0.000000000000056843 " transform="matrix(0.75, 0, 0, 0.75, 682.75, 215.875)"/>
<g fill="rgb(11.764526%, 11.764526%, 11.764526%)" fill-opacity="1">
<use xlink:href="#glyph-0-10" x="723.04" y="250.84"/>
</g>
<g fill="rgb(11.764526%, 11.764526%, 11.764526%)" fill-opacity="1">
<use xlink:href="#glyph-0-11" x="726.415" y="250.84"/>
</g>
<g fill="rgb(11.764526%, 11.764526%, 11.764526%)" fill-opacity="1">
<use xlink:href="#glyph-0-5" x="730.075" y="250.84"/>
</g>
<g fill="rgb(11.764526%, 11.764526%, 11.764526%)" fill-opacity="1">
<use xlink:href="#glyph-0-9" x="738.4" y="250.84"/>
</g>
<path fill="none" stroke-width="1" stroke-linecap="round" stroke-linejoin="miter" stroke="rgb(11.764526%, 11.764526%, 11.764526%)" stroke-opacity="1" stroke-miterlimit="4" d="M 32 -0.000000000000007105 C 199.46875 -1.5625 365.911458 -1.53125 466 -0.000000000000007105 M 32 -0.000000000000007105 C 196.010417 -0.802083 359.161458 -1.447917 466 -0.000000000000007105 M 466 -0.000000000000007105 C 488.5 1.578125 497.947917 9.729167 498 32 M 466 -0.000000000000007105 C 486.390625 -1.302083 498.760417 11.291667 498 32 M 498 32 C 498.421875 133.21875 498.161458 235.03125 498 517 M 498 32 C 496.208333 168.359375 496.401042 304.588542 498 517 M 498 517 C 498.458333 536.739583 485.802083 549.708333 466 549 M 498 517 C 496.651042 540.010417 489.0625 550.260417 466 549 M 466 549 C 307.989583 550.510417 147.578125 549.552083 32 549 M 466 549 C 299.411458 550.921875 133.25 551.208333 32 549 M 32 549 C 12.041667 548 0.78125 539.03125 -0.000000000000227374 517 M 32 549 C 8.760417 547.578125 -0.21875 539.390625 -0.000000000000227374 517 M -0.000000000000227374 517 C 1.302083 355.28125 2.197917 195.151042 -0.000000000000227374 32 M -0.000000000000227374 517 C 1.28125 408.989583 0.828125 300.567708 -0.000000000000227374 32 M -0.000000000000227374 32 C 1.817708 9.291667 11.609375 0.729167 32 -0.000000000000007105 M -0.000000000000227374 32 C -0.260417 11.869792 12.369792 1.088542 32 -0.000000000000007105 " transform="matrix(0.75, 0, 0, 0.75, 466, 32.5)"/>
<g fill="rgb(11.764526%, 11.764526%, 11.764526%)" fill-opacity="1">
<use xlink:href="#glyph-0-3" x="616.75" y="440.965"/>
</g>
<g fill="rgb(11.764526%, 11.764526%, 11.764526%)" fill-opacity="1">
<use xlink:href="#glyph-0-2" x="622.93" y="440.965"/>
</g>
<g fill="rgb(11.764526%, 11.764526%, 11.764526%)" fill-opacity="1">
<use xlink:href="#glyph-0-19" x="630.985" y="440.965"/>
</g>
<g fill="rgb(11.764526%, 11.764526%, 11.764526%)" fill-opacity="1">
<use xlink:href="#glyph-0-7" x="640.93" y="440.965"/>
</g>
<g fill="rgb(11.764526%, 11.764526%, 11.764526%)" fill-opacity="1">
<use xlink:href="#glyph-0-13" x="649.93" y="440.965"/>
</g>
<g fill="rgb(11.764526%, 11.764526%, 11.764526%)" fill-opacity="1">
<use xlink:href="#glyph-0-2" x="658.225" y="440.965"/>
</g>
<g fill="rgb(11.764526%, 11.764526%, 11.764526%)" fill-opacity="1">
<use xlink:href="#glyph-0-6" x="666.28" y="440.965"/>
</g>
<g fill="rgb(11.764526%, 11.764526%, 11.764526%)" fill-opacity="1">
<use xlink:href="#glyph-0-1" x="672.28" y="440.965"/>
</g>
<g fill="rgb(11.764526%, 11.764526%, 11.764526%)" fill-opacity="1">
<use xlink:href="#glyph-0-20" x="680.425" y="440.965"/>
</g>
<g fill="rgb(11.764526%, 11.764526%, 11.764526%)" fill-opacity="1">
<use xlink:href="#glyph-0-1" x="688.375" y="440.965"/>
</g>
<g fill="rgb(11.764526%, 11.764526%, 11.764526%)" fill-opacity="1">
<use xlink:href="#glyph-0-13" x="696.52" y="440.965"/>
</g>
<g fill="rgb(11.764526%, 11.764526%, 11.764526%)" fill-opacity="1">
<use xlink:href="#glyph-0-2" x="704.815" y="440.965"/>
</g>
<g fill="rgb(11.764526%, 11.764526%, 11.764526%)" fill-opacity="1">
<use xlink:href="#glyph-0-19" x="712.87" y="440.965"/>
</g>
<path fill="none" stroke-width="1" stroke-linecap="round" stroke-linejoin="miter" stroke="rgb(11.764526%, 11.764526%, 11.764526%)" stroke-opacity="1" stroke-miterlimit="4" d="M 32 -0.000000000000014211 C 114.458333 1.46875 195.947917 1.75 267 -0.000000000000014211 M 32 -0.000000000000014211 C 107.078125 0.229167 181.317708 0.291667 267 -0.000000000000014211 M 267 -0.000000000000014211 C 289.380208 -0.3125 298.989583 9.25 299 32 M 267 -0.000000000000014211 C 288.208333 -0.109375 296.979167 10.869792 299 32 M 299 32 C 301.25 113.947917 300.651042 196.932292 299 430 M 299 32 C 297.958333 180.78125 297.75 328.447917 299 430 M 299 430 C 299.390625 451.791667 288 463.520833 267 462 M 299 430 C 298.838542 452.0625 286.630208 461.239583 267 462 M 267 462 C 175.890625 462.078125 86.541667 461.140625 32 462 M 267 462 C 211.682292 461.520833 157.390625 461.46875 32 462 M 32 462 C 11.151042 462.770833 0.119792 451.239583 -0.000000000000028422 430 M 32 462 C 9.697917 461.880208 -1.369792 453.25 -0.000000000000028422 430 M -0.000000000000028422 430 C 1.640625 317.697917 2.802083 204.869792 -0.000000000000028422 32 M -0.000000000000028422 430 C 1.661458 297.21875 2.270833 164.6875 -0.000000000000028422 32 M -0.000000000000028422 32 C -1.989583 8.828125 11.71875 0.848958 32 -0.000000000000014211 M -0.000000000000028422 32 C 0.421875 11.21875 11.1875 -0.28125 32 -0.000000000000014211 " transform="matrix(0.75, 0, 0, 0.75, 174.25, 77.5)"/>
<g fill="rgb(11.764526%, 11.764526%, 11.764526%)" fill-opacity="1">
<use xlink:href="#glyph-0-10" x="235.75" y="404.215"/>
</g>
<g fill="rgb(11.764526%, 11.764526%, 11.764526%)" fill-opacity="1">
<use xlink:href="#glyph-0-7" x="239.125" y="404.215"/>
</g>
<g fill="rgb(11.764526%, 11.764526%, 11.764526%)" fill-opacity="1">
<use xlink:href="#glyph-0-9" x="248.125" y="404.215"/>
</g>
<g fill="rgb(11.764526%, 11.764526%, 11.764526%)" fill-opacity="1">
<use xlink:href="#glyph-0-17" x="255.685" y="404.215"/>
</g>
<g fill="rgb(11.764526%, 11.764526%, 11.764526%)" fill-opacity="1">
<use xlink:href="#glyph-0-10" x="264.325" y="404.215"/>
</g>
<g fill="rgb(11.764526%, 11.764526%, 11.764526%)" fill-opacity="1">
<use xlink:href="#glyph-0-6" x="267.7" y="404.215"/>
</g>
<g fill="rgb(11.764526%, 11.764526%, 11.764526%)" fill-opacity="1">
<use xlink:href="#glyph-0-1" x="273.7" y="404.215"/>
</g>
<g fill="rgb(11.764526%, 11.764526%, 11.764526%)" fill-opacity="1">
<use xlink:href="#glyph-0-20" x="281.845" y="404.215"/>
</g>
<g fill="rgb(11.764526%, 11.764526%, 11.764526%)" fill-opacity="1">
<use xlink:href="#glyph-0-1" x="289.795" y="404.215"/>
</g>
<g fill="rgb(11.764526%, 11.764526%, 11.764526%)" fill-opacity="1">
<use xlink:href="#glyph-0-13" x="297.94" y="404.215"/>
</g>
<g fill="rgb(11.764526%, 11.764526%, 11.764526%)" fill-opacity="1">
<use xlink:href="#glyph-0-2" x="306.235" y="404.215"/>
</g>
<g fill="rgb(11.764526%, 11.764526%, 11.764526%)" fill-opacity="1">
<use xlink:href="#glyph-0-19" x="314.29" y="404.215"/>
</g>
<path fill-rule="nonzero" fill="rgb(69.802856%, 94.900513%, 73.332214%)" fill-opacity="1" d="M 258.4375 86.875 C 280.78125 88.734375 306.550781 87.039062 335.3125 86.875 C 343.703125 89.273438 345.933594 90.894531 345.25 96.8125 C 346.699219 103.726562 344.597656 108.78125 345.25 116.6875 C 343.75 124.628906 339.25 127.855469 335.3125 126.625 C 310.113281 126.609375 289.90625 125.207031 258.4375 126.625 C 251.410156 128.875 249.835938 123.453125 248.5 116.6875 C 249.640625 109.375 246.917969 102.773438 248.5 96.8125 C 247.496094 91.652344 251.859375 85.734375 258.4375 86.875 "/>
<path fill="none" stroke-width="1" stroke-linecap="round" stroke-linejoin="miter" stroke="rgb(11.764526%, 11.764526%, 11.764526%)" stroke-opacity="1" stroke-miterlimit="4" d="M 13.25 -0.000000000000014211 C 37.21875 0.96875 55.838542 0.359375 115.75 -0.000000000000014211 M 13.25 -0.000000000000014211 C 45.317708 -0.390625 75.28125 1.46875 115.75 -0.000000000000014211 M 115.75 -0.000000000000014211 C 124.8125 -0.119792 130.578125 4.401042 129 13.25 M 115.75 -0.000000000000014211 C 123.291667 0.911458 130.9375 4.661458 129 13.25 M 129 13.25 C 128.197917 21.1875 130 26.302083 129 39.75 M 129 13.25 C 128.270833 20.208333 128.630208 27.53125 129 39.75 M 129 39.75 C 128.828125 48.520833 125.848958 53.848958 115.75 53 M 129 39.75 C 130.848958 50.588542 124.838542 51.5 115.75 53 M 115.75 53 C 88.109375 53.708333 61.770833 54.682292 13.25 53 M 115.75 53 C 95.447917 52.958333 73.619792 52.239583 13.25 53 M 13.25 53 C 4.5 51.651042 -0.369792 50.260417 -0.000000000000056843 39.75 M 13.25 53 C 4.958333 55.130208 -2.140625 49.78125 -0.000000000000056843 39.75 M -0.000000000000056843 39.75 C 1.432292 32.708333 1.380208 29.369792 -0.000000000000056843 13.25 M -0.000000000000056843 39.75 C 0.5 33.541667 -0.682292 25.067708 -0.000000000000056843 13.25 M -0.000000000000056843 13.25 C -0.432292 4.708333 3.96875 -1.130208 13.25 -0.000000000000014211 M -0.000000000000056843 13.25 C 0.911458 6.171875 5.921875 -0.53125 13.25 -0.000000000000014211 " transform="matrix(0.75, 0, 0, 0.75, 248.5, 86.875)"/>
<g fill="rgb(11.764526%, 11.764526%, 11.764526%)" fill-opacity="1">
<use xlink:href="#glyph-0-10" x="285.415" y="110.59"/>
</g>
<g fill="rgb(11.764526%, 11.764526%, 11.764526%)" fill-opacity="1">
<use xlink:href="#glyph-0-11" x="288.79" y="110.59"/>
</g>
<g fill="rgb(11.764526%, 11.764526%, 11.764526%)" fill-opacity="1">
<use xlink:href="#glyph-0-5" x="292.45" y="110.59"/>
</g>
<g fill="rgb(11.764526%, 11.764526%, 11.764526%)" fill-opacity="1">
<use xlink:href="#glyph-0-9" x="300.775" y="110.59"/>
</g>
<path fill="none" stroke-width="1" stroke-linecap="round" stroke-linejoin="miter" stroke="rgb(11.764526%, 11.764526%, 11.764526%)" stroke-opacity="1" stroke-miterlimit="4" d="M 0.369792 0.03125 C 2.130208 -6.588542 8.6875 -33.140625 10.25 -39.791667 M -0.109375 -0.432292 C 1.630208 -7.208333 8.401042 -34.1875 9.9375 -40.640625 " transform="matrix(0.75, 0, 0, 0.75, 292.75, 162.25)"/>
<path fill="none" stroke-width="1" stroke-linecap="round" stroke-linejoin="miter" stroke="rgb(11.764526%, 11.764526%, 11.764526%)" stroke-opacity="1" stroke-miterlimit="4" d="M 12.161458 -20.151042 C 11.6875 -24.671875 11.479167 -30.682292 9.9375 -40.640625 M 12.161458 -20.151042 C 11.239583 -26.479167 10.932292 -33.817708 9.9375 -40.640625 " transform="matrix(0.75, 0, 0, 0.75, 292.75, 162.25)"/>
<path fill="none" stroke-width="1" stroke-linecap="round" stroke-linejoin="miter" stroke="rgb(11.764526%, 11.764526%, 11.764526%)" stroke-opacity="1" stroke-miterlimit="4" d="M -1.541667 -23.520833 C 1.317708 -27.270833 4.447917 -32.458333 9.9375 -40.640625 M -1.541667 -23.520833 C 2.041667 -28.802083 6.208333 -35.03125 9.9375 -40.640625 " transform="matrix(0.75, 0, 0, 0.75, 292.75, 162.25)"/>
<path fill="none" stroke-width="1" stroke-linecap="round" stroke-linejoin="miter" stroke="rgb(11.764526%, 11.764526%, 11.764526%)" stroke-opacity="1" stroke-miterlimit="4" d="M 0.171875 -0.661458 C 1.651042 -1.588542 -1.052083 4.130208 9.088542 -5.1875 C 19.229167 -14.510417 52.302083 -47.911458 61 -56.5625 M -1.197917 1.609375 C 0.630208 0.3125 0.567708 3.161458 11.328125 -6.880208 C 22.088542 -16.932292 55.0625 -50.489583 63.369792 -58.671875 " transform="matrix(0.75, 0, 0, 0.75, 627.25, 224.5)"/>
<path fill="none" stroke-width="1" stroke-linecap="round" stroke-linejoin="miter" stroke="rgb(11.764526%, 11.764526%, 11.764526%)" stroke-opacity="1" stroke-miterlimit="4" d="M 52.828125 -36 C 55.020833 -44.760417 60.828125 -52.140625 63.369792 -58.671875 M 52.828125 -36 C 56.578125 -43.4375 60.458333 -51.682292 63.369792 -58.671875 " transform="matrix(0.75, 0, 0, 0.75, 627.25, 224.5)"/>
<path fill="none" stroke-width="1" stroke-linecap="round" stroke-linejoin="miter" stroke="rgb(11.764526%, 11.764526%, 11.764526%)" stroke-opacity="1" stroke-miterlimit="4" d="M 40.71875 -48.078125 C 46.8125 -53 56.479167 -56.53125 63.369792 -58.671875 M 40.71875 -48.078125 C 48.479167 -51.4375 56.432292 -55.619792 63.369792 -58.671875 " transform="matrix(0.75, 0, 0, 0.75, 627.25, 224.5)"/>
<path fill="none" stroke-width="1" stroke-linecap="round" stroke-linejoin="miter" stroke="rgb(11.764526%, 11.764526%, 11.764526%)" stroke-opacity="1" stroke-miterlimit="4" d="M -0.651042 0.880208 C 8.9375 -2.932292 46.901042 -19.5 56.458333 -23.619792 M 1.21875 0.302083 C 10.78125 -3.291667 46.5625 -18.53125 55.75 -22.401042 " transform="matrix(0.75, 0, 0, 0.75, 638.5, 280)"/>
<path fill="none" stroke-width="1" stroke-linecap="round" stroke-linejoin="miter" stroke="rgb(11.764526%, 11.764526%, 11.764526%)" stroke-opacity="1" stroke-miterlimit="4" d="M 37.4375 -5.380208 C 42.869792 -8.088542 44.21875 -11.21875 55.75 -22.401042 M 37.4375 -5.380208 C 42.682292 -10.317708 46.4375 -12.838542 55.75 -22.401042 " transform="matrix(0.75, 0, 0, 0.75, 638.5, 280)"/>
<path fill="none" stroke-width="1" stroke-linecap="round" stroke-linejoin="miter" stroke="rgb(11.764526%, 11.764526%, 11.764526%)" stroke-opacity="1" stroke-miterlimit="4" d="M 30.78125 -21.130208 C 37.510417 -20.5 40.260417 -20.3125 55.75 -22.401042 M 30.78125 -21.130208 C 37.552083 -22.432292 42.869792 -21.28125 55.75 -22.401042 " transform="matrix(0.75, 0, 0, 0.75, 638.5, 280)"/>
<g fill="rgb(11.764526%, 11.764526%, 11.764526%)" fill-opacity="1">
<use xlink:href="#glyph-0-21" x="149.5" y="266.215"/>
</g>
<g fill="rgb(11.764526%, 11.764526%, 11.764526%)" fill-opacity="1">
<use xlink:href="#glyph-0-22" x="160.45" y="266.215"/>
</g>
<g fill="rgb(11.764526%, 11.764526%, 11.764526%)" fill-opacity="1">
<use xlink:href="#glyph-0-23" x="268.937506" y="150.34"/>
</g>
<g fill="rgb(11.764526%, 11.764526%, 11.764526%)" fill-opacity="1">
<use xlink:href="#glyph-0-24" x="279.077506" y="150.34"/>
</g>
<g fill="rgb(11.764526%, 11.764526%, 11.764526%)" fill-opacity="1">
<use xlink:href="#glyph-0-22" x="289.547506" y="150.34"/>
</g>
<g fill="rgb(11.764526%, 11.764526%, 11.764526%)" fill-opacity="1">
<use xlink:href="#glyph-0-23" x="414.10751" y="213.34"/>
</g>
<g fill="rgb(11.764526%, 11.764526%, 11.764526%)" fill-opacity="1">
<use xlink:href="#glyph-0-24" x="424.24751" y="213.34"/>
</g>
<g fill="rgb(11.764526%, 11.764526%, 11.764526%)" fill-opacity="1">
<use xlink:href="#glyph-0-22" x="434.71751" y="213.34"/>
</g>
<g fill="rgb(11.764526%, 11.764526%, 11.764526%)" fill-opacity="1">
<use xlink:href="#glyph-0-23" x="633.10751" y="172.84"/>
</g>
<g fill="rgb(11.764526%, 11.764526%, 11.764526%)" fill-opacity="1">
<use xlink:href="#glyph-0-24" x="643.24751" y="172.84"/>
</g>
<g fill="rgb(11.764526%, 11.764526%, 11.764526%)" fill-opacity="1">
<use xlink:href="#glyph-0-22" x="653.71751" y="172.84"/>
</g>
<g fill="rgb(11.764526%, 11.764526%, 11.764526%)" fill-opacity="1">
<use xlink:href="#glyph-0-23" x="631.60751" y="259.09"/>
</g>
<g fill="rgb(11.764526%, 11.764526%, 11.764526%)" fill-opacity="1">
<use xlink:href="#glyph-0-24" x="641.74751" y="259.09"/>
</g>
<g fill="rgb(11.764526%, 11.764526%, 11.764526%)" fill-opacity="1">
<use xlink:href="#glyph-0-22" x="652.21751" y="259.09"/>
</g>
<path fill="none" stroke-width="1" stroke-linecap="round" stroke-linejoin="miter" stroke="rgb(11.764526%, 11.764526%, 11.764526%)" stroke-opacity="1" stroke-miterlimit="4" d="M -0.5 -0.229167 C 0.348958 4.0625 4.0625 21.541667 5.0625 25.932292 M 0.25 -0.828125 C 1.03125 3.541667 3.802083 22 4.661458 26.588542 " transform="matrix(0.75, 0, 0, 0.75, 728.5, 186.25)"/>
<path fill="none" stroke-width="1" stroke-linecap="round" stroke-linejoin="miter" stroke="rgb(11.764526%, 11.764526%, 11.764526%)" stroke-opacity="1" stroke-miterlimit="4" d="M -1.848958 15.0625 C -0.197917 18.5625 1.921875 22.489583 4.661458 26.588542 M -1.848958 15.0625 C -0.0520833 18.630208 1.9375 22.510417 4.661458 26.588542 " transform="matrix(0.75, 0, 0, 0.75, 728.5, 186.25)"/>
<path fill="none" stroke-width="1" stroke-linecap="round" stroke-linejoin="miter" stroke="rgb(11.764526%, 11.764526%, 11.764526%)" stroke-opacity="1" stroke-miterlimit="4" d="M 7.078125 13.578125 C 6.109375 17.46875 5.588542 21.838542 4.661458 26.588542 M 7.078125 13.578125 C 6.078125 17.609375 5.270833 21.958333 4.661458 26.588542 " transform="matrix(0.75, 0, 0, 0.75, 728.5, 186.25)"/>
</svg>
